<svg width="845" height="679" viewBox="0 0 845 679" fill="none" xmlns="http://www.w3.org/2000/svg">
<path d="M88.7736 654.335L87.6327 654.214C87.714 653.448 87.4983 652.82 86.9733 652.29C84.8031 650.101 78.004 650.243 75.5661 650.484L75.3722 649.355C78.3825 648.614 86.4303 646.034 87.5126 643.036C87.7462 642.389 87.6233 641.755 87.137 641.096C84.2289 637.164 73.8131 642.696 70.0441 645.16L69.416 644.199C70.0063 643.813 83.9148 634.812 88.0584 640.414C88.7812 641.391 88.96 642.405 88.592 643.426C87.6649 645.993 83.1892 648.014 79.7532 649.223C82.6074 649.315 86.12 649.801 87.7879 651.481C88.5617 652.262 88.8928 653.222 88.7736 654.335Z" fill="#42428E"/>
<path d="M744.775 666.847C740.836 666.804 738.01 661.897 738.997 657.379L755.244 581.981H777.269L753.687 661.599C752.73 666.848 747.271 666.876 744.775 666.847Z" fill="#552748"/>
<path d="M1178.83 121.172L1148.99 434.008L1138.58 465.776C1138.58 465.776 825.887 584.731 817.603 584.731C817.603 584.731 223.388 584.731 17.4449 584.731C13.4583 584.731 11.467 581.798 9.80671 578.312C6.24587 570.835 -33.8826 447.128 78.9753 404.715C142.088 380.996 202.735 440.1 273.069 417.36C283.173 414.082 290.185 405.658 295.435 393.6C326.758 321.826 296.124 121.758 491.506 121.063L1178.83 121.172Z" fill="#B9B9B9"/>
<path d="M1144.9 121.172L1148.99 434.008L1070.04 460.443L824.614 423.903C824.614 423.903 475.04 423.281 244.677 423.189C276.001 351.414 296.125 121.757 491.506 121.062L1144.9 121.172Z" fill="#B9B9B9"/>
<path d="M162.151 634.679C162.151 634.679 161.401 651.107 150.183 655.514C138.965 659.921 106.653 663.439 118.477 674.256C125.261 680.463 157.905 677.217 167.098 677.406C176.292 677.595 184.841 681.782 191.799 675.769C199.455 669.155 192.634 635.308 192.634 635.308C192.634 635.308 184.616 639.278 177.485 638.946C167.208 638.465 162.151 634.679 162.151 634.679Z" fill="#66192D"/>
<path d="M64.091 625.25C64.091 625.25 63.1621 641.668 51.8978 645.955C40.6325 650.239 8.28504 653.409 19.9902 664.351C26.706 670.631 59.3836 667.738 68.5742 668.027C77.7658 668.317 86.2678 672.593 93.292 666.658C101.019 660.125 94.5644 626.208 94.5644 626.208C94.5644 626.208 86.5034 630.091 79.376 629.68C69.1069 629.09 64.091 625.25 64.091 625.25Z" fill="#66192D"/>
<path d="M71.5939 638.839C52.6044 636.676 38.6609 619.951 39.9721 600.882C47.3823 493.138 57.4083 438.873 93.8113 393.975C117.199 365.132 151.352 337.76 192.316 322.803C227.634 309.909 257.39 304.453 295.999 305.517C358.957 307.254 387.673 319.124 387.673 319.124C426.265 420.959 351.495 427.583 296.784 425.561C294.977 425.493 293.161 425.439 291.337 425.397C258.174 424.631 198.803 427.956 173.782 458.817C153.966 483.255 138.627 518.641 125.382 612.183C122.84 630.131 106.506 642.816 88.4937 640.765L71.5939 638.839Z" fill="#3A6E49"/>
<path d="M161.881 652.238C142.891 650.076 128.948 633.351 130.259 614.284C137.668 506.538 147.695 452.272 184.097 407.376C207.485 378.531 240.678 358.097 282.756 346.643C312.785 338.468 347.59 334.863 386.198 335.927C449.158 337.664 477.959 332.524 477.959 332.524C517.869 462.063 334.706 419.505 281.829 468.672C258.788 490.095 228.913 532.041 215.668 625.582C213.126 643.531 196.792 656.214 178.781 654.163L161.881 652.238Z" fill="#3A6E49"/>
<path d="M286.328 149.576C281.365 155.989 232.875 211.207 232.262 272.16L277.474 263.015L309.033 185.413L286.328 149.576Z" fill="#FDAD9B"/>
<path d="M461.389 149.98C461.389 149.98 442.043 98.7813 375.928 102.329C309.812 105.877 263.369 131.962 253.771 316.479C253.771 316.479 345.015 311.29 449.334 372.701C466.899 383.041 494.319 380.955 495.443 360.604C497.683 320.074 489.343 242.666 461.389 149.98Z" fill="#88C78A"/>
<path d="M519.474 158.071L461.382 176.474C461.382 176.474 341.098 190.553 309.034 185.412C276.969 180.271 267.811 154.919 267.811 154.919C267.811 154.919 301.292 116.011 359.028 104.735C364.453 103.667 370.082 102.852 375.926 102.333C385.733 101.467 395.164 100.568 404.789 101.578C498.853 111.441 519.474 158.071 519.474 158.071Z" fill="#88C78A"/>
<path d="M519.475 158.071C522.585 164.998 508.977 171.498 492.294 177.681C475.608 183.866 460.728 185.113 459.058 180.467C457.387 175.82 469.557 167.04 486.24 160.855C502.924 154.672 517.452 153.564 519.475 158.071Z" fill="#66192D"/>
<path d="M354.084 334.907C342.773 333.229 333.905 328.988 327.211 322.186C314.573 309.34 314.475 291.837 318.228 280.75L333.018 274.855C334.249 271.219 358.462 289.001 358.42 288.98C358.534 289.038 370.42 294.474 416.746 278.86C448.995 267.991 467.329 248.493 472.797 219.252C476.918 197.21 469.751 185.891 468.22 180.149C468.016 179.385 472.195 169.773 489.412 164.08C508.001 157.933 514.753 162.723 514.753 162.723C517.528 173.123 523.185 196.894 517.437 227.634C511.465 259.568 491.627 301.922 431.026 322.347C397.98 333.485 372.719 337.672 354.084 334.907Z" fill="#FDAD9B"/>
<path d="M343.927 340.093L222.556 336.777C220.015 336.708 217.804 335.029 217.067 332.614L193.904 256.6C192.737 252.772 195.687 248.935 199.713 249.044L316.431 252.234C321.751 252.379 326.379 255.891 327.921 260.949L349.737 332.538C350.904 336.366 347.953 340.203 343.927 340.093Z" fill="#66192D"/>
<path d="M336.308 339.885L214.938 336.569C212.397 336.5 210.186 334.822 209.449 332.405L186.285 256.392C185.118 252.564 188.069 248.726 192.095 248.837L308.813 252.025C314.132 252.172 318.761 255.682 320.303 260.74L342.12 332.33C343.285 336.158 340.334 339.995 336.308 339.885Z" fill="#66192D"/>
<path d="M252.525 291.575C252.604 288.716 255.935 287.639 258.814 287.718C261.694 287.797 266.31 291.064 266.171 295.07C266.02 299.394 262.626 299.864 259.746 299.785C256.865 299.707 252.426 295.216 252.525 291.575Z" fill="#DEEBE9"/>
<path d="M381.256 330.461L215.171 325.923L214.881 336.568L384.421 341.2C386.391 341.255 388.034 339.699 388.088 337.729L388.088 337.678C388.193 333.798 385.135 330.567 381.256 330.461Z" fill="#66192D"/>
<path d="M329.016 290.687C328.963 290.461 323.619 267.969 319.952 260.923C316.34 253.98 311.694 252.498 311.647 252.484L311.877 251.73C312.08 251.792 316.886 253.325 320.652 260.559C324.365 267.691 329.566 289.578 329.785 290.506L329.016 290.687Z" fill="#DEEBE9"/>
<path d="M345.898 329.89C341.399 329.768 340.333 327.746 340.29 327.659L331.577 299.09L332.331 298.86L341.02 327.368C341.031 327.368 342.002 328.994 345.919 329.1L345.898 329.89Z" fill="#DEEBE9"/>
<g opacity="0.3">
<path d="M472.362 286.366C471.36 286.366 470.479 286.08 469.785 285.526C467.102 283.376 468.002 277.877 471.835 273.007C474.338 269.827 477.563 267.659 480.25 267.35C481.521 267.206 482.637 267.481 483.475 268.153C486.16 270.301 485.259 275.801 481.425 280.671C478.922 283.85 475.698 286.018 473.009 286.328C472.789 286.354 472.572 286.366 472.362 286.366ZM480.908 268.889C480.756 268.889 480.595 268.898 480.43 268.917C478.18 269.176 475.292 271.164 473.074 273.982C469.893 278.025 468.838 282.746 470.771 284.294C471.28 284.702 471.975 284.857 472.83 284.76C475.08 284.501 477.968 282.513 480.187 279.695C483.368 275.654 484.422 270.932 482.49 269.385C482.078 269.055 481.547 268.889 480.908 268.889Z" fill="#E08B65"/>
</g>
<path d="M387.843 93.424L377.887 75.863L374.989 70.7506L357.948 40.6917L363.648 73.0533L367.073 92.4771L368.157 98.6243C368.892 102.798 366.561 104.22 364.278 108.486C363.353 110.214 357.329 120.785 367.232 122.799C379.567 125.31 398.949 113.186 404.789 101.579C404.723 101.578 391.061 99.0983 387.843 93.424Z" fill="#FDAD9B"/>
<path d="M329.598 34.2056C329.598 34.2056 329.268 42.455 333.444 51.7951C337.621 61.1352 342.314 34.9057 342.314 34.9057L329.598 34.2056Z" fill="#56335B"/>
<path d="M332.877 54.8773C331.223 35.4138 342.967 18.5235 359.109 17.1517C375.251 15.7809 389.677 30.4472 391.331 49.9107C392.985 69.3752 381.241 86.2645 365.099 87.6363C348.957 89.0071 334.532 74.3408 332.877 54.8773Z" fill="#FDAD9B"/>
<path d="M389.883 39.862L375.698 41.456C372.579 41.806 369.43 40.7777 367.214 38.5555C363.4 34.7288 359.48 33.1934 346.647 36.5092C330.398 40.7068 317.445 33.305 313.8 25.121C310.081 16.7657 317.167 9.00073 326.309 11.3724C335.45 13.746 329.68 4.28665 337.355 1.47033C351.699 -3.79335 356.961 6.9999 368.988 3.98113C384.755 0.0239106 415.828 5.86751 408.455 36.7619L389.883 39.862Z" fill="#66192D"/>
<path d="M360.28 51.2757C360.111 51.2133 359.971 51.0761 359.914 50.8907C359.818 50.5776 359.994 50.2446 360.307 50.1481C360.491 50.0913 364.65 48.3705 367.836 52.4942C368.037 52.7543 368.002 53.1243 367.745 53.3305C367.489 53.5367 367.165 53.4459 366.908 53.2406C364.339 51.1849 360.81 51.2379 360.656 51.2852C360.528 51.324 360.397 51.3174 360.28 51.2757Z" fill="#060633"/>
<path d="M364.428 58.177C364.357 59.5932 363.464 60.6991 362.436 60.648C361.409 60.5959 360.633 59.4049 360.705 57.9868C360.778 56.5697 361.67 55.4628 362.697 55.5158C363.726 55.5678 364.502 56.7598 364.428 58.177Z" fill="#060633"/>
<path d="M338.415 54.251C338.275 54.2567 338.133 54.181 338.037 54.0296C337.873 53.7752 337.898 53.4015 338.091 53.1943C338.205 53.0732 340.643 49.9305 344.16 52.5718C344.382 52.7383 344.469 53.095 344.349 53.3816C344.229 53.6683 343.972 53.7033 343.727 53.6087C341.274 52.657 338.78 54.0183 338.685 54.1195C338.606 54.2037 338.511 54.2463 338.415 54.251Z" fill="#060633"/>
<path d="M345.012 59.0455C345.485 60.3831 345.081 61.7464 344.11 62.0888C343.139 62.4322 341.97 61.6253 341.497 60.2876C341.024 58.9509 341.428 57.5867 342.398 57.2452C343.369 56.9008 344.539 57.7078 345.012 59.0455Z" fill="#060633"/>
<path d="M408.456 36.7609C408.456 36.7609 403.4 59.526 390.148 64.013C390.148 64.013 397.687 45.8588 372.437 41.3216C372.437 41.3216 392.96 33.3287 408.456 36.7609Z" fill="#66192D"/>
<path d="M391.801 52.3561C389.3 54.8394 385.474 55.041 383.255 52.8055C381.036 50.5719 381.263 46.7471 383.764 44.2629C386.266 41.7795 390.092 41.5771 392.311 43.8125C394.531 46.048 394.303 49.8718 391.801 52.3561Z" fill="#FDAD9B"/>
<path d="M372.435 41.3208C372.435 41.3208 378.083 58.2612 375.27 62.3131C372.457 66.3639 349.453 72.8745 337.653 71.0487C339.91 82.2297 349.912 90.3476 361.304 89.7894C365.073 89.605 368.833 88.7876 372.425 87.3174C379.751 84.3204 386.466 79.5506 388.061 71.7979C388.547 69.4395 382.874 56.8223 382.874 56.8223C382.874 56.8223 380.133 49.2891 383.764 44.2629C383.764 44.2629 377.527 40.7181 372.435 41.3208Z" fill="#66192D"/>
<path d="M344.766 76.0502C344.766 76.0502 354.227 76.5137 363.78 73.4344C363.78 73.4344 364.324 82.785 354.056 83.1445C348.083 83.3535 344.766 76.0502 344.766 76.0502Z" fill="white"/>
<path d="M327.531 9.67141L327.385 8.88435C331.204 8.17294 330.862 5.08225 330.846 4.95075L331.639 4.85144C331.645 4.89117 332.084 8.82283 327.531 9.67141Z" fill="#66192D"/>
<path d="M341.002 32.9314C340.955 32.9285 336.209 32.5955 331.188 31.1566C324.502 29.24 320.36 26.2344 319.213 22.4645C318.414 19.8412 318.489 17.9463 319.448 16.6739C320.972 14.6466 324.388 14.6929 327.399 14.7345C327.846 14.7402 328.285 14.7516 328.699 14.7459V15.147C328.284 15.1461 327.841 15.1414 327.392 15.1347C324.477 15.095 321.169 15.0487 319.767 16.9133C318.893 18.0759 318.837 19.8535 319.597 22.3472C322.283 31.1651 340.844 32.5199 341.031 32.5322L341.002 32.9314Z" fill="white"/>
<path d="M364.094 8.02816C354.762 8.02816 349.292 3.89024 349.217 3.83064L349.463 3.51468C349.563 3.59415 359.856 11.3648 376.366 5.34241L376.503 5.71801C371.854 7.41423 367.687 8.02816 364.094 8.02816Z" fill="white"/>
<path d="M135.066 553.698C135.065 553.288 135.123 512.166 150.401 468.001C159.378 442.051 171.776 420.139 187.251 402.874C206.603 381.282 230.845 366.942 259.301 360.252L259.466 360.955C231.156 367.61 207.04 381.876 187.787 403.355C172.378 420.549 160.028 442.378 151.083 468.237C135.845 512.286 135.787 553.287 135.788 553.696L135.066 553.698Z" fill="white"/>
<path d="M1164.62 173.84L1100.38 553.682C1096.84 574.606 1082.92 589.387 1066.95 589.185L748.303 585.168C726.663 584.895 709.135 561.536 709.125 532.744C709.109 487.849 717.158 421.079 771.021 402.878C900.249 359.208 951.497 440.107 1004.36 417.356C1050.81 397.368 1015.43 177.504 1122.45 123.837C1146.35 111.852 1170.54 140.505 1164.62 173.84Z" fill="#8D8D8D"/>
<path d="M1198.4 173.84L1134.16 553.682C1130.62 574.606 1116.7 589.387 1100.73 589.185L782.083 585.168C760.442 584.895 742.916 561.536 742.905 532.743C742.889 487.849 753.122 426.581 804.801 402.878C890.481 363.581 985.277 440.107 1038.14 417.356C1084.59 397.368 1049.21 177.504 1156.23 123.837C1180.13 111.852 1204.32 140.505 1198.4 173.84Z" fill="#5B5B5B"/>
<path d="M756.184 506.009C756.152 506.009 756.12 506.008 756.088 506.007C754.985 505.956 754.133 505.02 754.183 503.916C754.213 503.255 755.008 487.505 761.553 468.853C770.274 444.009 785.156 426.109 804.594 417.093C805.6 416.628 806.786 417.064 807.252 418.065C807.716 419.068 807.281 420.257 806.279 420.722C761.624 441.438 758.21 503.477 758.18 504.102C758.129 505.174 757.244 506.009 756.184 506.009Z" fill="white"/>
</svg>
