<svg width="41" height="43" viewBox="0 0 41 43" fill="none" xmlns="http://www.w3.org/2000/svg">
<path d="M3 40V25C3 23.6739 3.52679 22.4021 4.46447 21.4645C5.40215 20.5268 6.67392 20 8 20C9.32608 20 10.5979 20.5268 11.5355 21.4645C12.4732 22.4021 13 23.6739 13 25V40M3 32.5H13M23 20V40" stroke="#6E956C" stroke-width="5" stroke-linecap="round" stroke-linejoin="round"/>
<path d="M40.5722 13.75C40.5742 14.0065 40.4963 14.2573 40.3492 14.4674C40.2021 14.6776 39.9933 14.8367 39.7517 14.9226L34.7939 16.726L32.9918 21.6845C32.903 21.9239 32.7431 22.1303 32.5335 22.2761C32.324 22.4219 32.0748 22.5 31.8196 22.5C31.5644 22.5 31.3152 22.4219 31.1057 22.2761C30.8961 22.1303 30.7362 21.9239 30.6474 21.6845L28.8453 16.7252L23.8875 14.9226C23.6482 14.8337 23.4419 14.6738 23.2961 14.4641C23.1504 14.2545 23.0723 14.0053 23.0723 13.75C23.0723 13.4947 23.1504 13.2455 23.2961 13.0359C23.4419 12.8262 23.6482 12.6663 23.8875 12.5774L28.8453 10.7748L30.6474 5.81551C30.7362 5.57615 30.8961 5.3697 31.1057 5.22392C31.3152 5.07814 31.5644 5 31.8196 5C32.0748 5 32.324 5.07814 32.5335 5.22392C32.7431 5.3697 32.903 5.57615 32.9918 5.81551L34.7947 10.7748L39.7517 12.5774C39.9933 12.6633 40.2021 12.8224 40.3492 13.0326C40.4963 13.2427 40.5742 13.4935 40.5722 13.75Z" fill="#6E956C"/>
<path d="M28.0722 5C28.0734 5.14658 28.0288 5.28987 27.9448 5.40995C27.8608 5.53003 27.7414 5.62094 27.6034 5.67005L24.7704 6.70058L23.7406 9.53399C23.6898 9.67077 23.5984 9.78874 23.4787 9.87204C23.359 9.95535 23.2166 10 23.0707 10C22.9249 10 22.7825 9.95535 22.6628 9.87204C22.543 9.78874 22.4517 9.67077 22.4009 9.53399L21.3711 6.70014L18.5381 5.67005C18.4014 5.61928 18.2835 5.52786 18.2002 5.40808C18.1169 5.2883 18.0723 5.1459 18.0723 5C18.0723 4.8541 18.1169 4.7117 18.2002 4.59192C18.2835 4.47214 18.4014 4.38072 18.5381 4.32995L21.3711 3.29986L22.4009 0.466007C22.4517 0.329226 22.543 0.21126 22.6628 0.127956C22.7825 0.0446514 22.9249 0 23.0707 0C23.2166 0 23.359 0.0446514 23.4787 0.127956C23.5984 0.21126 23.6898 0.329226 23.7406 0.466007L24.7708 3.29986L27.6034 4.32995C27.7414 4.37906 27.8608 4.46997 27.9448 4.59005C28.0288 4.71013 28.0734 4.85342 28.0722 5Z" fill="#6E956C"/>
</svg>
