<svg width="48" height="48" viewBox="0 0 48 48" fill="none" xmlns="http://www.w3.org/2000/svg">
<g clip-path="url(#clip0_507_800)">
<path d="M47.282 29.8039C44.0754 42.6679 31.0421 50.4877 18.1965 47.2809C5.3321 44.0743 -2.48778 31.0415 0.719037 18.1961C3.92566 5.3321 16.94 -2.48777 29.8044 0.719038C42.65 3.90691 50.4888 16.9397 47.282 29.8039Z" fill="url(#paint0_linear_507_800)"/>
<path d="M35.4281 21.0095C35.8969 17.822 33.4781 16.097 30.1406 14.9532L31.2281 10.622L28.6031 9.96572L27.5531 14.1845C26.8594 14.0157 26.1469 13.847 25.4344 13.697L26.4844 9.45947L23.8594 8.80322L22.7906 13.1157C22.2094 12.9845 21.6469 12.8532 21.1031 12.722V12.7032L17.4656 11.8032L16.7719 14.6157C16.7719 14.6157 18.7219 15.0657 18.6844 15.0845C19.7531 15.347 19.9406 16.0595 19.9031 16.622L18.6656 21.5532C18.7406 21.572 18.8344 21.5907 18.9469 21.647C18.8531 21.6282 18.7594 21.6095 18.6656 21.572L16.9406 28.472C16.8094 28.7907 16.4719 29.2782 15.7406 29.0907C15.7594 29.1282 13.8281 28.622 13.8281 28.622L12.5156 31.6407L15.9469 32.5032C16.5844 32.672 17.2031 32.822 17.8219 32.9907L16.7344 37.3595L19.3594 38.0157L20.4469 33.6845C21.1594 33.872 21.8719 34.0595 22.5469 34.2282L21.4781 38.5407L24.1031 39.197L25.1906 34.8282C29.6906 35.672 33.0656 35.3345 34.4719 31.2657C35.6156 28.0032 34.4156 26.1095 32.0531 24.872C33.7969 24.4782 35.0906 23.3345 35.4281 21.0095ZM29.4094 29.447C28.6031 32.7095 23.0906 30.947 21.3094 30.497L22.7531 24.7032C24.5344 25.1532 30.2719 26.0345 29.4094 29.447ZM30.2344 20.9532C29.4844 23.9345 24.9094 22.4157 23.4281 22.0407L24.7406 16.7907C26.2219 17.1657 31.0031 17.8595 30.2344 20.9532Z" fill="white"/>
</g>
<defs>
<linearGradient id="paint0_linear_507_800" x1="2398.7" y1="-1.152" x2="2398.7" y2="4799.52" gradientUnits="userSpaceOnUse">
<stop stop-color="#F9AA4B"/>
<stop offset="1" stop-color="#F7931A"/>
</linearGradient>
<clipPath id="clip0_507_800">
<rect width="48" height="48" fill="white"/>
</clipPath>
</defs>
</svg>
