
<svg id="visual" viewBox="0 0 900 400" width="900" height="400" xmlns="http://www.w3.org/2000/svg" xmlns:xlink="http://www.w3.org/1999/xlink" version="1.1"><path d="M0 208L25 198.5C50 189 100 170 150 190.2C200 210.3 250 269.7 300 254.8C350 240 400 151 450 139.3C500 127.7 550 193.3 600 190.7C650 188 700 117 750 120.3C800 123.7 850 201.3 875 240.2L900 279L900 401L875 401C850 401 800 401 750 401C700 401 650 401 600 401C550 401 500 401 450 401C400 401 350 401 300 401C250 401 200 401 150 401C100 401 50 401 25 401L0 401Z" fill="#3A6E49" stroke-linecap="round" stroke-linejoin="miter"></path></svg>