<svg width="938" height="167" viewBox="0 0 938 167" fill="none" xmlns="http://www.w3.org/2000/svg">
<path d="M18.858 53.5952C13.61 53.5952 9.30067 52.3579 5.93 49.8832C2.55933 47.3659 0.746 43.7819 0.49 39.1312H13.866C13.994 40.7099 14.4633 41.8619 15.274 42.5872C16.0847 43.3125 17.13 43.6752 18.41 43.6752C19.562 43.6752 20.5007 43.3979 21.226 42.8432C21.994 42.2459 22.378 41.4352 22.378 40.4112C22.378 39.0885 21.7593 38.0645 20.522 37.3392C19.2847 36.6139 17.2793 35.8032 14.506 34.9072C11.562 33.9259 9.17267 32.9872 7.338 32.0912C5.546 31.1525 3.96733 29.8085 2.602 28.0592C1.27933 26.2672 0.618 23.9419 0.618 21.0832C0.618 18.1819 1.34333 15.7072 2.794 13.6592C4.24467 11.5685 6.25 9.98988 8.81 8.92321C11.37 7.85655 14.2713 7.32322 17.514 7.32322C22.762 7.32322 26.9433 8.56055 30.058 11.0352C33.2153 13.4672 34.9007 16.9019 35.114 21.3392H21.482C21.4393 19.9739 21.0127 18.9499 20.202 18.2672C19.434 17.5845 18.4313 17.2432 17.194 17.2432C16.2553 17.2432 15.4873 17.5205 14.89 18.0752C14.2927 18.6299 13.994 19.4192 13.994 20.4432C13.994 21.2965 14.314 22.0432 14.954 22.6832C15.6367 23.2805 16.4687 23.8139 17.45 24.2832C18.4313 24.7099 19.882 25.2645 21.802 25.9472C24.6607 26.9285 27.0073 27.9099 28.842 28.8912C30.7193 29.8299 32.3193 31.1739 33.642 32.9232C35.0073 34.6299 35.69 36.8059 35.69 39.4512C35.69 42.1392 35.0073 44.5499 33.642 46.6832C32.3193 48.8165 30.378 50.5019 27.818 51.7392C25.3007 52.9766 22.314 53.5952 18.858 53.5952ZM62.7055 42.4592V53.1472H57.2655C48.0922 53.1472 43.5055 48.6032 43.5055 39.5152V27.6752H39.0895V17.2432H43.5055V8.53922H56.1135V17.2432H62.6415V27.6752H56.1135V39.7072C56.1135 40.6885 56.3268 41.3925 56.7535 41.8192C57.2228 42.2459 57.9908 42.4592 59.0575 42.4592H62.7055ZM66.411 35.1632C66.411 31.4512 67.0723 28.2085 68.395 25.4352C69.7603 22.6619 71.595 20.5285 73.899 19.0352C76.2457 17.5419 78.8483 16.7952 81.707 16.7952C84.1817 16.7952 86.315 17.2859 88.107 18.2672C89.899 19.2485 91.2857 20.5712 92.267 22.2352V17.2432H104.811V53.1472H92.267V48.1552C91.2857 49.8192 89.8777 51.1419 88.043 52.1232C86.251 53.1046 84.139 53.5952 81.707 53.5952C78.8483 53.5952 76.2457 52.8486 73.899 51.3552C71.595 49.8619 69.7603 47.7285 68.395 44.9552C67.0723 42.1392 66.411 38.8752 66.411 35.1632ZM92.267 35.1632C92.267 32.8592 91.627 31.0459 90.347 29.7232C89.1097 28.4005 87.5737 27.7392 85.739 27.7392C83.8617 27.7392 82.3043 28.4005 81.067 29.7232C79.8297 31.0032 79.211 32.8165 79.211 35.1632C79.211 37.4672 79.8297 39.3019 81.067 40.6672C82.3043 41.9899 83.8617 42.6512 85.739 42.6512C87.5737 42.6512 89.1097 41.9899 90.347 40.6672C91.627 39.3445 92.267 37.5099 92.267 35.1632ZM124.503 23.5792C125.911 21.5312 127.618 19.9099 129.623 18.7152C131.628 17.5205 133.783 16.9232 136.087 16.9232V30.2992H132.567C129.836 30.2992 127.81 30.8325 126.487 31.8992C125.164 32.9659 124.503 34.8219 124.503 37.4672V53.1472H111.959V17.2432H124.503V23.5792ZM161.768 42.4592V53.1472H156.328C147.155 53.1472 142.568 48.6032 142.568 39.5152V27.6752H138.152V17.2432H142.568V8.53922H155.176V17.2432H161.704V27.6752H155.176V39.7072C155.176 40.6885 155.389 41.3925 155.816 41.8192C156.285 42.2459 157.053 42.4592 158.12 42.4592H161.768ZM218.428 17.2432L195.644 70.2352H182.012L190.588 51.6112L175.867 17.2432H189.82L197.372 37.5952L204.668 17.2432H218.428ZM238.413 53.5952C234.829 53.5952 231.608 52.8486 228.749 51.3552C225.933 49.8619 223.714 47.7285 222.093 44.9552C220.472 42.1819 219.661 38.9179 219.661 35.1632C219.661 31.4512 220.472 28.2085 222.093 25.4352C223.757 22.6619 225.997 20.5285 228.813 19.0352C231.672 17.5419 234.893 16.7952 238.477 16.7952C242.061 16.7952 245.261 17.5419 248.077 19.0352C250.936 20.5285 253.176 22.6619 254.797 25.4352C256.461 28.2085 257.293 31.4512 257.293 35.1632C257.293 38.8752 256.461 42.1392 254.797 44.9552C253.176 47.7285 250.936 49.8619 248.077 51.3552C245.218 52.8486 241.997 53.5952 238.413 53.5952ZM238.413 42.7152C240.162 42.7152 241.613 42.0752 242.765 40.7952C243.96 39.4725 244.557 37.5952 244.557 35.1632C244.557 32.7312 243.96 30.8752 242.765 29.5952C241.613 28.3152 240.184 27.6752 238.477 27.6752C236.77 27.6752 235.341 28.3152 234.189 29.5952C233.037 30.8752 232.461 32.7312 232.461 35.1632C232.461 37.6379 233.016 39.5152 234.125 40.7952C235.234 42.0752 236.664 42.7152 238.413 42.7152ZM299.133 17.2432V53.1472H286.525V48.0272C285.458 49.6485 283.986 50.9712 282.109 51.9952C280.231 52.9766 278.077 53.4672 275.645 53.4672C271.463 53.4672 268.157 52.1019 265.725 49.3712C263.335 46.5979 262.141 42.8432 262.141 38.1072V17.2432H274.621V36.5072C274.621 38.5552 275.154 40.1765 276.221 41.3712C277.33 42.5232 278.781 43.0992 280.573 43.0992C282.407 43.0992 283.858 42.5232 284.925 41.3712C285.991 40.1765 286.525 38.5552 286.525 36.5072V17.2432H299.133ZM318.816 23.5792C320.224 21.5312 321.93 19.9099 323.936 18.7152C325.941 17.5205 328.096 16.9232 330.4 16.9232V30.2992H326.88C324.149 30.2992 322.122 30.8325 320.8 31.8992C319.477 32.9659 318.816 34.8219 318.816 37.4672V53.1472H306.272V17.2432H318.816V23.5792ZM353.419 13.9152C351.2 13.9152 349.408 13.3179 348.043 12.1232C346.72 10.8859 346.059 9.34988 346.059 7.51521C346.059 5.63788 346.72 4.08055 348.043 2.84322C349.408 1.60588 351.2 0.987213 353.419 0.987213C355.595 0.987213 357.344 1.60588 358.667 2.84322C360.032 4.08055 360.715 5.63788 360.715 7.51521C360.715 9.34988 360.032 10.8859 358.667 12.1232C357.344 13.3179 355.595 13.9152 353.419 13.9152ZM359.691 56.6672C359.691 65.7552 355.125 70.2992 345.995 70.2992H341.451V59.6112H344.139C345.205 59.6112 345.973 59.3979 346.443 58.9712C346.912 58.5446 347.147 57.8406 347.147 56.8592V17.2432H359.691V56.6672ZM383.476 53.5952C379.892 53.5952 376.67 52.8486 373.812 51.3552C370.996 49.8619 368.777 47.7285 367.156 44.9552C365.534 42.1819 364.724 38.9179 364.724 35.1632C364.724 31.4512 365.534 28.2085 367.156 25.4352C368.82 22.6619 371.06 20.5285 373.876 19.0352C376.734 17.5419 379.956 16.7952 383.54 16.7952C387.124 16.7952 390.324 17.5419 393.14 19.0352C395.998 20.5285 398.238 22.6619 399.86 25.4352C401.524 28.2085 402.356 31.4512 402.356 35.1632C402.356 38.8752 401.524 42.1392 399.86 44.9552C398.238 47.7285 395.998 49.8619 393.14 51.3552C390.281 52.8486 387.06 53.5952 383.476 53.5952ZM383.476 42.7152C385.225 42.7152 386.676 42.0752 387.828 40.7952C389.022 39.4725 389.62 37.5952 389.62 35.1632C389.62 32.7312 389.022 30.8752 387.828 29.5952C386.676 28.3152 385.246 27.6752 383.54 27.6752C381.833 27.6752 380.404 28.3152 379.252 29.5952C378.1 30.8752 377.524 32.7312 377.524 35.1632C377.524 37.6379 378.078 39.5152 379.188 40.7952C380.297 42.0752 381.726 42.7152 383.476 42.7152ZM444.195 17.2432V53.1472H431.587V48.0272C430.52 49.6485 429.048 50.9712 427.171 51.9952C425.294 52.9766 423.139 53.4672 420.707 53.4672C416.526 53.4672 413.219 52.1019 410.787 49.3712C408.398 46.5979 407.203 42.8432 407.203 38.1072V17.2432H419.683V36.5072C419.683 38.5552 420.216 40.1765 421.283 41.3712C422.392 42.5232 423.843 43.0992 425.635 43.0992C427.47 43.0992 428.92 42.5232 429.987 41.3712C431.054 40.1765 431.587 38.5552 431.587 36.5072V17.2432H444.195ZM463.878 23.5792C465.286 21.5312 466.993 19.9099 468.998 18.7152C471.003 17.5205 473.158 16.9232 475.462 16.9232V30.2992H471.942C469.211 30.2992 467.185 30.8325 465.862 31.8992C464.539 32.9659 463.878 34.8219 463.878 37.4672V53.1472H451.334V17.2432H463.878V23.5792ZM503.447 16.9232C507.586 16.9232 510.871 18.3099 513.303 21.0832C515.735 23.8139 516.951 27.5259 516.951 32.2192V53.1472H504.407V33.8832C504.407 31.8352 503.874 30.2352 502.807 29.0832C501.74 27.8885 500.311 27.2912 498.519 27.2912C496.642 27.2912 495.17 27.8885 494.103 29.0832C493.036 30.2352 492.503 31.8352 492.503 33.8832V53.1472H479.959V17.2432H492.503V22.3632C493.612 20.7419 495.106 19.4405 496.983 18.4592C498.86 17.4352 501.015 16.9232 503.447 16.9232ZM558.138 34.7792C558.138 35.7606 558.074 36.7419 557.946 37.7232H534.202C534.33 39.6859 534.863 41.1579 535.802 42.1392C536.783 43.0779 538.021 43.5472 539.514 43.5472C541.605 43.5472 543.098 42.6085 543.994 40.7312H557.37C556.815 43.2059 555.727 45.4245 554.106 47.3872C552.527 49.3072 550.522 50.8219 548.09 51.9312C545.658 53.0406 542.97 53.5952 540.026 53.5952C536.485 53.5952 533.327 52.8486 530.554 51.3552C527.823 49.8619 525.669 47.7285 524.09 44.9552C522.554 42.1819 521.786 38.9179 521.786 35.1632C521.786 31.4085 522.554 28.1659 524.09 25.4352C525.626 22.6619 527.759 20.5285 530.49 19.0352C533.263 17.5419 536.442 16.7952 540.026 16.7952C543.567 16.7952 546.703 17.5205 549.434 18.9712C552.165 20.4219 554.298 22.5125 555.834 25.2432C557.37 27.9312 558.138 31.1099 558.138 34.7792ZM545.338 31.6432C545.338 30.1072 544.826 28.9125 543.802 28.0592C542.778 27.1632 541.498 26.7152 539.962 26.7152C538.426 26.7152 537.167 27.1419 536.186 27.9952C535.205 28.8059 534.565 30.0219 534.266 31.6432H545.338ZM601.928 17.2432L579.144 70.2352H565.512L574.088 51.6112L559.367 17.2432H573.32L580.872 37.5952L588.168 17.2432H601.928ZM640.947 16.9232C645.086 16.9232 648.371 18.3099 650.803 21.0832C653.235 23.8139 654.451 27.5259 654.451 32.2192V53.1472H641.907V33.8832C641.907 31.8352 641.374 30.2352 640.307 29.0832C639.24 27.8885 637.811 27.2912 636.019 27.2912C634.142 27.2912 632.67 27.8885 631.603 29.0832C630.536 30.2352 630.003 31.8352 630.003 33.8832V53.1472H617.459V17.2432H630.003V22.3632C631.112 20.7419 632.606 19.4405 634.483 18.4592C636.36 17.4352 638.515 16.9232 640.947 16.9232ZM678.038 53.5952C674.454 53.5952 671.233 52.8486 668.374 51.3552C665.558 49.8619 663.339 47.7285 661.718 44.9552C660.097 42.1819 659.286 38.9179 659.286 35.1632C659.286 31.4512 660.097 28.2085 661.718 25.4352C663.382 22.6619 665.622 20.5285 668.438 19.0352C671.297 17.5419 674.518 16.7952 678.102 16.7952C681.686 16.7952 684.886 17.5419 687.702 19.0352C690.561 20.5285 692.801 22.6619 694.422 25.4352C696.086 28.2085 696.918 31.4512 696.918 35.1632C696.918 38.8752 696.086 42.1392 694.422 44.9552C692.801 47.7285 690.561 49.8619 687.702 51.3552C684.843 52.8486 681.622 53.5952 678.038 53.5952ZM678.038 42.7152C679.787 42.7152 681.238 42.0752 682.39 40.7952C683.585 39.4725 684.182 37.5952 684.182 35.1632C684.182 32.7312 683.585 30.8752 682.39 29.5952C681.238 28.3152 679.809 27.6752 678.102 27.6752C676.395 27.6752 674.966 28.3152 673.814 29.5952C672.662 30.8752 672.086 32.7312 672.086 35.1632C672.086 37.6379 672.641 39.5152 673.75 40.7952C674.859 42.0752 676.289 42.7152 678.038 42.7152ZM755.078 17.2432L745.926 53.1472H731.846L726.854 31.3872L721.67 53.1472H707.654L698.566 17.2432H711.046L715.078 41.0512L720.39 17.2432H733.83L739.334 41.1152L743.302 17.2432H755.078ZM772.151 42.3952L765.303 61.0832H757.367L760.695 42.3952H772.151ZM812.206 42.4592V53.1472H806.766C797.592 53.1472 793.006 48.6032 793.006 39.5152V27.6752H788.59V17.2432H793.006V8.53922H805.614V17.2432H812.142V27.6752H805.614V39.7072C805.614 40.6885 805.827 41.3925 806.253 41.8192C806.723 42.2459 807.491 42.4592 808.558 42.4592H812.206ZM815.911 35.1632C815.911 31.4512 816.572 28.2085 817.895 25.4352C819.26 22.6619 821.095 20.5285 823.399 19.0352C825.746 17.5419 828.348 16.7952 831.207 16.7952C833.682 16.7952 835.815 17.2859 837.607 18.2672C839.399 19.2485 840.786 20.5712 841.767 22.2352V17.2432H854.311V53.1472H841.767V48.1552C840.786 49.8192 839.378 51.1419 837.543 52.1232C835.751 53.1046 833.639 53.5952 831.207 53.5952C828.348 53.5952 825.746 52.8486 823.399 51.3552C821.095 49.8619 819.26 47.7285 817.895 44.9552C816.572 42.1392 815.911 38.8752 815.911 35.1632ZM841.767 35.1632C841.767 32.8592 841.127 31.0459 839.847 29.7232C838.61 28.4005 837.074 27.7392 835.239 27.7392C833.362 27.7392 831.804 28.4005 830.567 29.7232C829.33 31.0032 828.711 32.8165 828.711 35.1632C828.711 37.4672 829.33 39.3019 830.567 40.6672C831.804 41.9899 833.362 42.6512 835.239 42.6512C837.074 42.6512 838.61 41.9899 839.847 40.6672C841.127 39.3445 841.767 37.5099 841.767 35.1632ZM883.923 53.1472L874.003 38.4272V53.1472H861.459V5.78722H874.003V31.3232L883.923 17.2432H898.963L884.819 35.2912L899.219 53.1472H883.923ZM937.201 34.7792C937.201 35.7606 937.137 36.7419 937.009 37.7232H913.265C913.393 39.6859 913.926 41.1579 914.865 42.1392C915.846 43.0779 917.083 43.5472 918.577 43.5472C920.667 43.5472 922.161 42.6085 923.057 40.7312H936.433C935.878 43.2059 934.79 45.4245 933.169 47.3872C931.59 49.3072 929.585 50.8219 927.153 51.9312C924.721 53.0406 922.033 53.5952 919.089 53.5952C915.547 53.5952 912.39 52.8486 909.617 51.3552C906.886 49.8619 904.731 47.7285 903.153 44.9552C901.617 42.1819 900.849 38.9179 900.849 35.1632C900.849 31.4085 901.617 28.1659 903.153 25.4352C904.689 22.6619 906.822 20.5285 909.553 19.0352C912.326 17.5419 915.505 16.7952 919.089 16.7952C922.63 16.7952 925.766 17.5205 928.497 18.9712C931.227 20.4219 933.361 22.5125 934.897 25.2432C936.433 27.9312 937.201 31.1099 937.201 34.7792ZM924.401 31.6432C924.401 30.1072 923.889 28.9125 922.865 28.0592C921.841 27.1632 920.561 26.7152 919.025 26.7152C917.489 26.7152 916.23 27.1419 915.249 27.9952C914.267 28.8059 913.627 30.0219 913.329 31.6432H924.401ZM21.3173 131.163C21.3173 127.451 22.0853 124.209 23.6213 121.435C25.1573 118.662 27.2906 116.529 30.0213 115.035C32.7946 113.542 35.9519 112.795 39.4933 112.795C44.0586 112.795 47.8986 114.054 51.0133 116.571C54.1279 119.046 56.1333 122.523 57.0293 127.003H43.7173C42.9493 124.657 41.4559 123.483 39.2373 123.483C37.6586 123.483 36.3999 124.145 35.4613 125.467C34.5653 126.747 34.1173 128.646 34.1173 131.163C34.1173 133.681 34.5653 135.601 35.4613 136.923C36.3999 138.246 37.6586 138.907 39.2373 138.907C41.4986 138.907 42.9919 137.734 43.7173 135.387H57.0293C56.1333 139.825 54.1279 143.302 51.0133 145.819C47.8986 148.337 44.0586 149.595 39.4933 149.595C35.9519 149.595 32.7946 148.849 30.0213 147.355C27.2906 145.862 25.1573 143.729 23.6213 140.955C22.0853 138.182 21.3173 134.918 21.3173 131.163ZM60.1923 131.163C60.1923 127.451 60.8536 124.209 62.1763 121.435C63.5416 118.662 65.3763 116.529 67.6803 115.035C70.0269 113.542 72.6296 112.795 75.4883 112.795C77.9629 112.795 80.0963 113.286 81.8883 114.267C83.6803 115.249 85.0669 116.571 86.0483 118.235V113.243H98.5923V149.147H86.0483V144.155C85.0669 145.819 83.6589 147.142 81.8243 148.123C80.0323 149.105 77.9203 149.595 75.4883 149.595C72.6296 149.595 70.0269 148.849 67.6803 147.355C65.3763 145.862 63.5416 143.729 62.1763 140.955C60.8536 138.139 60.1923 134.875 60.1923 131.163ZM86.0483 131.163C86.0483 128.859 85.4083 127.046 84.1283 125.723C82.8909 124.401 81.3549 123.739 79.5203 123.739C77.6429 123.739 76.0856 124.401 74.8483 125.723C73.6109 127.003 72.9923 128.817 72.9923 131.163C72.9923 133.467 73.6109 135.302 74.8483 136.667C76.0856 137.99 77.6429 138.651 79.5203 138.651C81.3549 138.651 82.8909 137.99 84.1283 136.667C85.4083 135.345 86.0483 133.51 86.0483 131.163ZM118.284 119.579C119.692 117.531 121.399 115.91 123.404 114.715C125.41 113.521 127.564 112.923 129.868 112.923V126.299H126.348C123.618 126.299 121.591 126.833 120.268 127.899C118.946 128.966 118.284 130.822 118.284 133.467V149.147H105.74V113.243H118.284V119.579ZM168.669 130.779C168.669 131.761 168.605 132.742 168.477 133.723H144.733C144.861 135.686 145.395 137.158 146.333 138.139C147.315 139.078 148.552 139.547 150.045 139.547C152.136 139.547 153.629 138.609 154.525 136.731H167.901C167.347 139.206 166.259 141.425 164.637 143.387C163.059 145.307 161.053 146.822 158.621 147.931C156.189 149.041 153.501 149.595 150.557 149.595C147.016 149.595 143.859 148.849 141.085 147.355C138.355 145.862 136.2 143.729 134.621 140.955C133.085 138.182 132.317 134.918 132.317 131.163C132.317 127.409 133.085 124.166 134.621 121.435C136.157 118.662 138.291 116.529 141.021 115.035C143.795 113.542 146.973 112.795 150.557 112.795C154.099 112.795 157.235 113.521 159.965 114.971C162.696 116.422 164.829 118.513 166.365 121.243C167.901 123.931 168.669 127.11 168.669 130.779ZM155.869 127.643C155.869 126.107 155.357 124.913 154.333 124.059C153.309 123.163 152.029 122.715 150.493 122.715C148.957 122.715 147.699 123.142 146.717 123.995C145.736 124.806 145.096 126.022 144.797 127.643H155.869ZM202.757 149.595C199.173 149.595 195.951 148.849 193.093 147.355C190.277 145.862 188.058 143.729 186.437 140.955C184.815 138.182 184.005 134.918 184.005 131.163C184.005 127.451 184.815 124.209 186.437 121.435C188.101 118.662 190.341 116.529 193.157 115.035C196.015 113.542 199.237 112.795 202.821 112.795C206.405 112.795 209.605 113.542 212.421 115.035C215.279 116.529 217.519 118.662 219.141 121.435C220.805 124.209 221.637 127.451 221.637 131.163C221.637 134.875 220.805 138.139 219.141 140.955C217.519 143.729 215.279 145.862 212.421 147.355C209.562 148.849 206.341 149.595 202.757 149.595ZM202.757 138.715C204.506 138.715 205.957 138.075 207.109 136.795C208.303 135.473 208.901 133.595 208.901 131.163C208.901 128.731 208.303 126.875 207.109 125.595C205.957 124.315 204.527 123.675 202.821 123.675C201.114 123.675 199.685 124.315 198.533 125.595C197.381 126.875 196.805 128.731 196.805 131.163C196.805 133.638 197.359 135.515 198.469 136.795C199.578 138.075 201.007 138.715 202.757 138.715ZM246.132 123.675H240.5V149.147H227.892V123.675H223.988V113.243H227.892V112.923C227.892 108.315 229.236 104.795 231.924 102.363C234.655 99.8885 238.559 98.6512 243.636 98.6512C244.66 98.6512 245.45 98.6725 246.004 98.7152V109.403C245.663 109.361 245.194 109.339 244.596 109.339C243.231 109.339 242.228 109.659 241.588 110.299C240.948 110.897 240.586 111.878 240.5 113.243H246.132V123.675ZM301.521 113.243L278.737 166.235H265.105L273.681 147.611L258.961 113.243H272.913L280.465 133.595L287.761 113.243H301.521ZM321.507 149.595C317.923 149.595 314.701 148.849 311.843 147.355C309.027 145.862 306.808 143.729 305.187 140.955C303.565 138.182 302.755 134.918 302.755 131.163C302.755 127.451 303.565 124.209 305.187 121.435C306.851 118.662 309.091 116.529 311.907 115.035C314.765 113.542 317.987 112.795 321.571 112.795C325.155 112.795 328.355 113.542 331.171 115.035C334.029 116.529 336.269 118.662 337.891 121.435C339.555 124.209 340.387 127.451 340.387 131.163C340.387 134.875 339.555 138.139 337.891 140.955C336.269 143.729 334.029 145.862 331.171 147.355C328.312 148.849 325.091 149.595 321.507 149.595ZM321.507 138.715C323.256 138.715 324.707 138.075 325.859 136.795C327.053 135.473 327.651 133.595 327.651 131.163C327.651 128.731 327.053 126.875 325.859 125.595C324.707 124.315 323.277 123.675 321.571 123.675C319.864 123.675 318.435 124.315 317.283 125.595C316.131 126.875 315.555 128.731 315.555 131.163C315.555 133.638 316.109 135.515 317.219 136.795C318.328 138.075 319.757 138.715 321.507 138.715ZM382.226 113.243V149.147H369.618V144.027C368.552 145.649 367.08 146.971 365.202 147.995C363.325 148.977 361.17 149.467 358.738 149.467C354.557 149.467 351.25 148.102 348.818 145.371C346.429 142.598 345.234 138.843 345.234 134.107V113.243H357.714V132.507C357.714 134.555 358.248 136.177 359.314 137.371C360.424 138.523 361.874 139.099 363.666 139.099C365.501 139.099 366.952 138.523 368.018 137.371C369.085 136.177 369.618 134.555 369.618 132.507V113.243H382.226ZM401.909 119.579C403.317 117.531 405.024 115.91 407.029 114.715C409.035 113.521 411.189 112.923 413.493 112.923V126.299H409.973C407.243 126.299 405.216 126.833 403.893 127.899C402.571 128.966 401.909 130.822 401.909 133.467V149.147H389.365V113.243H401.909V119.579ZM477.152 112.923C481.675 112.923 485.216 114.289 487.776 117.019C490.379 119.75 491.68 123.483 491.68 128.219V149.147H479.136V129.883C479.136 127.963 478.603 126.47 477.536 125.403C476.47 124.337 475.019 123.803 473.184 123.803C471.35 123.803 469.899 124.337 468.832 125.403C467.766 126.47 467.232 127.963 467.232 129.883V149.147H454.688V129.883C454.688 127.963 454.155 126.47 453.088 125.403C452.064 124.337 450.635 123.803 448.8 123.803C446.923 123.803 445.451 124.337 444.384 125.403C443.318 126.47 442.784 127.963 442.784 129.883V149.147H430.24V113.243H442.784V117.979C443.894 116.443 445.323 115.227 447.072 114.331C448.864 113.393 450.912 112.923 453.216 112.923C455.862 112.923 458.208 113.499 460.256 114.651C462.347 115.803 463.99 117.425 465.184 119.515C466.464 117.553 468.15 115.974 470.24 114.779C472.331 113.542 474.635 112.923 477.152 112.923ZM532.857 130.779C532.857 131.761 532.793 132.742 532.665 133.723H508.921C509.049 135.686 509.582 137.158 510.521 138.139C511.502 139.078 512.739 139.547 514.233 139.547C516.323 139.547 517.817 138.609 518.713 136.731H532.089C531.534 139.206 530.446 141.425 528.825 143.387C527.246 145.307 525.241 146.822 522.809 147.931C520.377 149.041 517.689 149.595 514.745 149.595C511.203 149.595 508.046 148.849 505.273 147.355C502.542 145.862 500.387 143.729 498.809 140.955C497.273 138.182 496.505 134.918 496.505 131.163C496.505 127.409 497.273 124.166 498.809 121.435C500.345 118.662 502.478 116.529 505.209 115.035C507.982 113.542 511.161 112.795 514.745 112.795C518.286 112.795 521.422 113.521 524.153 114.971C526.883 116.422 529.017 118.513 530.553 121.243C532.089 123.931 532.857 127.11 532.857 130.779ZM520.057 127.643C520.057 126.107 519.545 124.913 518.521 124.059C517.497 123.163 516.217 122.715 514.681 122.715C513.145 122.715 511.886 123.142 510.905 123.995C509.923 124.806 509.283 126.022 508.985 127.643H520.057ZM561.478 112.923C565.617 112.923 568.902 114.31 571.334 117.083C573.766 119.814 574.982 123.526 574.982 128.219V149.147H562.438V129.883C562.438 127.835 561.905 126.235 560.838 125.083C559.772 123.889 558.342 123.291 556.55 123.291C554.673 123.291 553.201 123.889 552.134 125.083C551.068 126.235 550.534 127.835 550.534 129.883V149.147H537.99V113.243H550.534V118.363C551.644 116.742 553.137 115.441 555.014 114.459C556.892 113.435 559.046 112.923 561.478 112.923ZM603.049 138.459V149.147H597.609C588.436 149.147 583.849 144.603 583.849 135.515V123.675H579.433V113.243H583.849V104.539H596.457V113.243H602.985V123.675H596.457V135.707C596.457 136.689 596.671 137.393 597.097 137.819C597.567 138.246 598.335 138.459 599.401 138.459H603.049ZM606.755 131.163C606.755 127.451 607.416 124.209 608.739 121.435C610.104 118.662 611.939 116.529 614.243 115.035C616.589 113.542 619.192 112.795 622.051 112.795C624.525 112.795 626.659 113.286 628.451 114.267C630.243 115.249 631.629 116.571 632.611 118.235V113.243H645.155V149.147H632.611V144.155C631.629 145.819 630.221 147.142 628.387 148.123C626.595 149.105 624.483 149.595 622.051 149.595C619.192 149.595 616.589 148.849 614.243 147.355C611.939 145.862 610.104 143.729 608.739 140.955C607.416 138.139 606.755 134.875 606.755 131.163ZM632.611 131.163C632.611 128.859 631.971 127.046 630.691 125.723C629.453 124.401 627.917 123.739 626.083 123.739C624.205 123.739 622.648 124.401 621.411 125.723C620.173 127.003 619.555 128.817 619.555 131.163C619.555 133.467 620.173 135.302 621.411 136.667C622.648 137.99 624.205 138.651 626.083 138.651C627.917 138.651 629.453 137.99 630.691 136.667C631.971 135.345 632.611 133.51 632.611 131.163ZM664.847 101.787V149.147H652.303V101.787H664.847ZM707.856 112.923C711.952 112.923 715.195 114.31 717.584 117.083C720.016 119.814 721.232 123.526 721.232 128.219V149.147H708.688V129.883C708.688 127.835 708.155 126.235 707.088 125.083C706.022 123.889 704.592 123.291 702.8 123.291C700.923 123.291 699.451 123.889 698.384 125.083C697.318 126.235 696.784 127.835 696.784 129.883V149.147H684.24V101.787H696.784V118.363C697.894 116.742 699.387 115.441 701.264 114.459C703.184 113.435 705.382 112.923 707.856 112.923ZM762.419 130.779C762.419 131.761 762.355 132.742 762.227 133.723H738.483C738.611 135.686 739.145 137.158 740.083 138.139C741.065 139.078 742.302 139.547 743.795 139.547C745.886 139.547 747.379 138.609 748.275 136.731H761.651C761.097 139.206 760.009 141.425 758.387 143.387C756.809 145.307 754.803 146.822 752.371 147.931C749.939 149.041 747.251 149.595 744.307 149.595C740.766 149.595 737.609 148.849 734.835 147.355C732.105 145.862 729.95 143.729 728.371 140.955C726.835 138.182 726.067 134.918 726.067 131.163C726.067 127.409 726.835 124.166 728.371 121.435C729.907 118.662 732.041 116.529 734.771 115.035C737.545 113.542 740.723 112.795 744.307 112.795C747.849 112.795 750.985 113.521 753.715 114.971C756.446 116.422 758.579 118.513 760.115 121.243C761.651 123.931 762.419 127.11 762.419 130.779ZM749.619 127.643C749.619 126.107 749.107 124.913 748.083 124.059C747.059 123.163 745.779 122.715 744.243 122.715C742.707 122.715 741.449 123.142 740.467 123.995C739.486 124.806 738.846 126.022 738.547 127.643H749.619ZM765.505 131.163C765.505 127.451 766.166 124.209 767.489 121.435C768.854 118.662 770.689 116.529 772.993 115.035C775.339 113.542 777.942 112.795 780.801 112.795C783.275 112.795 785.409 113.286 787.201 114.267C788.993 115.249 790.379 116.571 791.361 118.235V113.243H803.905V149.147H791.361V144.155C790.379 145.819 788.971 147.142 787.137 148.123C785.345 149.105 783.233 149.595 780.801 149.595C777.942 149.595 775.339 148.849 772.993 147.355C770.689 145.862 768.854 143.729 767.489 140.955C766.166 138.139 765.505 134.875 765.505 131.163ZM791.361 131.163C791.361 128.859 790.721 127.046 789.441 125.723C788.203 124.401 786.667 123.739 784.833 123.739C782.955 123.739 781.398 124.401 780.161 125.723C778.923 127.003 778.305 128.817 778.305 131.163C778.305 133.467 778.923 135.302 780.161 136.667C781.398 137.99 782.955 138.651 784.833 138.651C786.667 138.651 788.203 137.99 789.441 136.667C790.721 135.345 791.361 133.51 791.361 131.163ZM823.597 101.787V149.147H811.053V101.787H823.597ZM851.924 138.459V149.147H846.484C837.311 149.147 832.724 144.603 832.724 135.515V123.675H828.308V113.243H832.724V104.539H845.332V113.243H851.86V123.675H845.332V135.707C845.332 136.689 845.546 137.393 845.972 137.819C846.442 138.246 847.21 138.459 848.276 138.459H851.924ZM881.294 112.923C885.39 112.923 888.632 114.31 891.022 117.083C893.454 119.814 894.67 123.526 894.67 128.219V149.147H882.126V129.883C882.126 127.835 881.592 126.235 880.526 125.083C879.459 123.889 878.03 123.291 876.238 123.291C874.36 123.291 872.888 123.889 871.822 125.083C870.755 126.235 870.222 127.835 870.222 129.883V149.147H857.678V101.787H870.222V118.363C871.331 116.742 872.824 115.441 874.702 114.459C876.622 113.435 878.819 112.923 881.294 112.923ZM907.633 149.659C905.414 149.659 903.622 149.062 902.257 147.867C900.934 146.63 900.273 145.073 900.273 143.195C900.273 141.318 900.934 139.761 902.257 138.523C903.622 137.286 905.414 136.667 907.633 136.667C909.809 136.667 911.558 137.286 912.881 138.523C914.246 139.761 914.929 141.318 914.929 143.195C914.929 145.03 914.246 146.566 912.881 147.803C911.558 149.041 909.809 149.659 907.633 149.659Z" fill="#3A6E49"/>
</svg>
