<svg width="731" height="823" viewBox="0 0 731 823" fill="none" xmlns="http://www.w3.org/2000/svg">
<path d="M602.786 545.222C620.872 528.053 636.845 508.549 650.368 487.447C651.446 485.767 652.48 484.057 653.526 482.355L653.553 482.361C653.553 482.361 795.399 279.529 694.654 133.423C597.023 -8.16615 509.002 0.253727 332.72 0.253727L332.737 0.327726C328.268 0.39588 323.809 0.504915 319.37 0.697692C293.809 1.81151 267.693 7.17617 242.859 16.4703C193.639 34.8912 149.455 68.7479 124.586 115.54C110.473 142.098 107.321 194.88 93.1747 230.686C80.2112 260.911 55.962 311.892 32.8441 330.465C-0.877735 357.555 -5.2922 362.892 6.74953 373.563C18.7932 384.236 46.0913 396.55 46.0913 396.55C46.0913 396.55 46.2646 420.554 32.3489 428.882C32.3489 428.882 24.815 440.47 28.8295 447.858C32.8441 455.246 41.275 466.74 41.275 466.74C41.275 466.74 22.8077 470.434 33.6478 498.757C44.4859 527.079 58.5368 529.952 39.6696 558.685C20.8023 587.418 26.8242 624.77 64.9605 629.695C103.097 634.619 153.279 637.905 174.555 641.598C195.831 645.292 202.657 646.523 202.657 646.523C202.657 646.523 210.686 725.743 211.89 758.581C213.091 791.421 221.12 822.207 221.12 822.207H299.93C311.952 822.207 325.148 822.207 339.009 822.207C432.882 822.207 557.441 822.207 557.441 822.207L650.932 821.558C651.003 796.885 577.653 612.604 581.51 588.223C585.081 565.642 587.577 559.659 602.786 545.222Z" fill="#3A6E49"/>
</svg>
