<svg width="101" height="100" viewBox="0 0 101 100" fill="none" xmlns="http://www.w3.org/2000/svg">
<path d="M0.48999 51.3304C0.48999 51.3304 8.57776 17.3853 43.9652 10.5351C43.9652 10.5351 11.8309 11.4079 0.48999 51.3304Z" fill="white"/>
<path d="M1.92639 64.8769C1.92639 64.8769 13.6482 57.5353 25.1363 69.1189C25.1363 69.1189 14.9673 55.3818 1.92639 64.8769Z" fill="white"/>
<path d="M30.8119 25.3949C30.8119 25.3949 30.673 46.1079 53.2291 46.7178C53.2291 46.7178 29.7482 48.1593 30.8119 25.3949Z" fill="white"/>
<path d="M27.4156 23.3932C27.4156 23.3932 43.3952 12.9015 52.1424 28.0751C52.1424 28.0751 48.3551 10.295 27.4156 23.3932Z" fill="white"/>
<path d="M14.6609 36.0655C14.6609 36.0655 19.0684 59.4482 54.6184 58.6018C54.6184 58.6018 19.338 63.4345 14.6609 36.0655Z" fill="white"/>
<path d="M8.9303 21.8844C8.9303 21.8844 26.2736 17.6048 24.8437 41.3292C24.8437 41.3292 27.3927 16.6093 8.9303 21.8844Z" fill="white"/>
<path d="M47.9659 9.87982C47.9659 9.87982 101.932 14.7968 95.5221 60.2781C95.5221 60.2781 111.796 17.3933 47.9659 9.87982Z" fill="white"/>
<path d="M28.5536 66.445C28.5536 66.445 80.4085 83.9917 71.5951 61.9679C71.5951 61.9679 88.0044 85.9488 28.5536 66.445Z" fill="white"/>
<path d="M42.0027 4.74005C42.0027 4.74005 72.2759 21.6053 50.4933 51.9453C50.4933 51.9453 76.923 24.7859 42.0027 4.74005Z" fill="white"/>
<path d="M11.5319 66.8758C11.5319 66.8758 -0.785354 37.2027 27.9423 46.3753C27.9423 46.3753 -1.42836 32.3088 11.5319 66.8758Z" fill="white"/>
<path d="M11.535 38.4119C11.535 38.4119 47.7018 7.23048 84.6284 41.3292C84.6284 41.3292 51.0676 5.61616 11.535 38.4119Z" fill="white"/>
<path d="M24.9627 71.7349C24.9627 71.7349 42.823 74.3647 52.8014 57.1544C52.8014 57.1544 46.5346 76.7462 24.9627 71.7349Z" fill="white"/>
<path d="M64.5826 58.9309C64.5826 58.9309 99.6621 83.8673 100.454 39.8197C100.454 39.8197 103.036 85.8272 64.5826 58.9309Z" fill="white"/>
<path d="M54.6186 0.52002C54.6186 0.52002 107.288 45.0948 53.2296 83.3401C53.2296 83.3401 102.943 51.689 54.6186 0.52002Z" fill="white"/>
<path d="M35.7422 6.58636C35.7422 6.58636 110.776 25.8409 82.5359 79.12C82.5359 79.12 118.389 31.9072 35.7422 6.58636Z" fill="white"/>
<path d="M24.963 10.5351C24.963 10.5351 17.0188 46.311 60.3193 57.4404C60.3193 57.4404 16.4665 52.2012 24.963 10.5351Z" fill="white"/>
<path d="M77.6209 74.0876C77.6209 74.0876 76.4248 52.7866 53.2296 47.7559C53.2296 47.7559 76.415 47.6905 77.6209 74.0876Z" fill="white"/>
<path d="M13.0486 64.8546C13.0486 64.8546 -2.1478 59.8502 8.93046 28.0751C8.93046 28.0751 -4.72677 59.2448 13.0486 64.8546Z" fill="white"/>
<path d="M30.7781 74.0876C30.7781 74.0876 4.12559 50.2347 42.0033 36.3232C42.0033 36.3232 0.928104 46.1079 30.7781 74.0876Z" fill="white"/>
<path d="M75.6601 79.1201C75.6601 79.1201 68.796 63.2431 48.6311 56.5707C48.6311 56.5707 69.5942 61.4479 75.6601 79.1201Z" fill="white"/>
<path d="M22.4841 58.931C22.4841 58.931 31.4625 68.2385 46.0287 61.9679C46.0287 61.9679 34.2384 70.4285 22.4841 58.931Z" fill="white"/>
<path d="M38.8556 12.8094C38.8556 12.8094 35.2037 34.8935 52.1416 48.2603C52.1416 48.2603 32.9097 37.7594 38.8556 12.8094Z" fill="white"/>
<path d="M51.1124 3.15741C51.1124 3.15741 73.8354 19.481 61.9549 44.9485C61.9549 44.9485 75.886 20.3018 51.1124 3.15741Z" fill="white"/>
<path d="M77.6207 64.8546C77.6207 64.8546 86.8818 55.7296 81.6008 43.4407C81.6008 43.4407 89.8881 55.6892 77.6207 64.8546Z" fill="white"/>
<path d="M31.0161 99.4738H10.1702V34.9387H36.7013L49.9669 72.9005L63.2324 34.9387H89.7635V99.4738H68.9177V67.2063L57.5472 99.4738H42.3866L31.0161 67.2063V99.4738Z" fill="white" fill-opacity="0.2"/>
<path d="M34.4417 74.022V86.2063H30.6384V80.1314L28.7626 86.2063H25.4928L23.617 80.1314V86.2063H19.7965V74.022H24.4775L27.1621 81.336L29.7779 74.022H34.4417ZM45.5619 81.2672C45.5619 81.5311 45.5447 81.7835 45.5103 82.0244H39.3665C39.4239 82.8619 39.7738 83.2807 40.4163 83.2807C40.8293 83.2807 41.1276 83.0914 41.3112 82.7128H45.3554C45.2177 83.4011 44.9251 84.0207 44.4777 84.5714C44.0417 85.1106 43.4853 85.5408 42.8084 85.8621C42.143 86.1718 41.4087 86.3267 40.6056 86.3267C39.6419 86.3267 38.7814 86.126 38.0242 85.7244C37.2784 85.3229 36.6933 84.7492 36.2688 84.0035C35.8558 83.2463 35.6493 82.3628 35.6493 81.3532C35.6493 80.3436 35.8558 79.4659 36.2688 78.7202C36.6933 77.963 37.2784 77.3836 38.0242 76.9821C38.7814 76.5805 39.6419 76.3797 40.6056 76.3797C41.5693 76.3797 42.424 76.5805 43.1698 76.9821C43.927 77.3721 44.5121 77.9343 44.9251 78.6686C45.3496 79.4028 45.5619 80.269 45.5619 81.2672ZM41.6898 80.3551C41.6898 80.0338 41.5865 79.7929 41.38 79.6323C41.1735 79.4602 40.9154 79.3742 40.6056 79.3742C39.9287 79.3742 39.5329 79.7011 39.4181 80.3551H41.6898ZM53.5679 76.4314C54.6807 76.4314 55.5469 76.8042 56.1665 77.55C56.7975 78.2957 57.113 79.3053 57.113 80.5788V86.2063H53.3097V81.0607C53.3097 80.6018 53.1835 80.2404 52.9311 79.9765C52.6902 79.7011 52.3632 79.5635 51.9502 79.5635C51.5257 79.5635 51.193 79.7011 50.952 79.9765C50.7111 80.2404 50.5907 80.6018 50.5907 81.0607V86.2063H46.7702V76.5002H50.5907V77.9802C50.8889 77.5213 51.2848 77.1484 51.7781 76.8616C52.2829 76.5748 52.8795 76.4314 53.5679 76.4314ZM64.8102 82.9537V86.2063H63.3646C60.7029 86.2063 59.372 84.8811 59.372 82.2309V79.6839H58.1673V76.5002H59.372V74.1597H63.1925V76.5002H64.7757V79.6839H63.1925V82.2997C63.1925 82.5292 63.2441 82.6956 63.3474 82.7988C63.4621 82.9021 63.6457 82.9537 63.8981 82.9537H64.8102ZM75.6615 81.2672C75.6615 81.5311 75.6443 81.7835 75.6098 82.0244H69.4661C69.5235 82.8619 69.8734 83.2807 70.5159 83.2807C70.9289 83.2807 71.2272 83.0914 71.4108 82.7128H75.455C75.3173 83.4011 75.0247 84.0207 74.5773 84.5714C74.1413 85.1106 73.5849 85.5408 72.908 85.8621C72.2425 86.1718 71.5083 86.3267 70.7052 86.3267C69.7414 86.3267 68.881 86.126 68.1238 85.7244C67.378 85.3229 66.7929 84.7492 66.3684 84.0035C65.9554 83.2463 65.7489 82.3628 65.7489 81.3532C65.7489 80.3436 65.9554 79.4659 66.3684 78.7202C66.7929 77.963 67.378 77.3836 68.1238 76.9821C68.881 76.5805 69.7414 76.3797 70.7052 76.3797C71.6689 76.3797 72.5236 76.5805 73.2694 76.9821C74.0266 77.3721 74.6117 77.9343 75.0247 78.6686C75.4492 79.4028 75.6615 80.269 75.6615 81.2672ZM71.7894 80.3551C71.7894 80.0338 71.6861 79.7929 71.4796 79.6323C71.2731 79.4602 71.0149 79.3742 70.7052 79.3742C70.0283 79.3742 69.6325 79.7011 69.5177 80.3551H71.7894ZM86.2661 81.2672C86.2661 81.5311 86.2489 81.7835 86.2144 82.0244H80.0707C80.1281 82.8619 80.478 83.2807 81.1205 83.2807C81.5335 83.2807 81.8318 83.0914 82.0153 82.7128H86.0595C85.9219 83.4011 85.6293 84.0207 85.1819 84.5714C84.7459 85.1106 84.1895 85.5408 83.5126 85.8621C82.8471 86.1718 82.1129 86.3267 81.3098 86.3267C80.346 86.3267 79.4856 86.126 78.7284 85.7244C77.9826 85.3229 77.3975 84.7492 76.973 84.0035C76.56 83.2463 76.3535 82.3628 76.3535 81.3532C76.3535 80.3436 76.56 79.4659 76.973 78.7202C77.3975 77.963 77.9826 77.3836 78.7284 76.9821C79.4856 76.5805 80.346 76.3797 81.3098 76.3797C82.2735 76.3797 83.1282 76.5805 83.874 76.9821C84.6312 77.3721 85.2163 77.9343 85.6293 78.6686C86.0538 79.4028 86.2661 80.269 86.2661 81.2672ZM82.394 80.3551C82.394 80.0338 82.2907 79.7929 82.0842 79.6323C81.8777 79.4602 81.6195 79.3742 81.3098 79.3742C80.6329 79.3742 80.237 79.7011 80.1223 80.3551H82.394Z" fill="white"/>
</svg>
