<svg width="193" height="64" viewBox="0 0 193 64" fill="none" xmlns="http://www.w3.org/2000/svg">
<path d="M95.3487 28.12C95.3487 29.5493 95.018 30.8507 94.3567 32.024C93.6954 33.176 92.714 34.0933 91.4127 34.776C90.1327 35.4587 88.5754 35.8 86.7407 35.8H83.9247V43H76.8207V20.344H86.7407C89.514 20.344 91.6367 21.048 93.1087 22.456C94.602 23.864 95.3487 25.752 95.3487 28.12ZM85.9407 30.2C87.4127 30.2 88.1487 29.5067 88.1487 28.12C88.1487 26.7333 87.4127 26.04 85.9407 26.04H83.9247V30.2H85.9407ZM96.642 33.976C96.642 32.0773 96.962 30.4347 97.602 29.048C98.2633 27.64 99.1593 26.5733 100.29 25.848C101.421 25.1013 102.69 24.728 104.098 24.728C105.271 24.728 106.285 24.9733 107.138 25.464C107.991 25.9333 108.642 26.584 109.09 27.416V24.952H116.162V43H109.09V40.536C108.642 41.368 107.991 42.0293 107.138 42.52C106.285 42.9893 105.271 43.224 104.098 43.224C102.69 43.224 101.421 42.8613 100.29 42.136C99.1593 41.3893 98.2633 40.3227 97.602 38.936C96.962 37.528 96.642 35.8747 96.642 33.976ZM109.09 33.976C109.09 33.016 108.845 32.2693 108.354 31.736C107.863 31.2027 107.234 30.936 106.466 30.936C105.698 30.936 105.069 31.2027 104.578 31.736C104.087 32.2693 103.842 33.016 103.842 33.976C103.842 34.936 104.087 35.6827 104.578 36.216C105.069 36.7493 105.698 37.016 106.466 37.016C107.234 37.016 107.863 36.7493 108.354 36.216C108.845 35.6827 109.09 34.936 109.09 33.976ZM139.736 24.952L128.184 51.64H120.408L124.952 42.104L117.432 24.952H125.336L128.728 34.104L131.896 24.952H139.736Z" fill="#27346A"/>
<path d="M159.536 28.12C159.536 29.5493 159.206 30.8507 158.544 32.024C157.883 33.176 156.902 34.0933 155.6 34.776C154.32 35.4587 152.763 35.8 150.928 35.8H148.112V43H141.008V20.344H150.928C153.702 20.344 155.824 21.048 157.296 22.456C158.79 23.864 159.536 25.752 159.536 28.12ZM150.128 30.2C151.6 30.2 152.336 29.5067 152.336 28.12C152.336 26.7333 151.6 26.04 150.128 26.04H148.112V30.2H150.128ZM160.829 33.976C160.829 32.0773 161.149 30.4347 161.789 29.048C162.451 27.64 163.347 26.5733 164.477 25.848C165.608 25.1013 166.877 24.728 168.285 24.728C169.459 24.728 170.472 24.9733 171.325 25.464C172.179 25.9333 172.829 26.584 173.277 27.416V24.952H180.349V43H173.277V40.536C172.829 41.368 172.179 42.0293 171.325 42.52C170.472 42.9893 169.459 43.224 168.285 43.224C166.877 43.224 165.608 42.8613 164.477 42.136C163.347 41.3893 162.451 40.3227 161.789 38.936C161.149 37.528 160.829 35.8747 160.829 33.976ZM173.277 33.976C173.277 33.016 173.032 32.2693 172.541 31.736C172.051 31.2027 171.421 30.936 170.653 30.936C169.885 30.936 169.256 31.2027 168.765 31.736C168.275 32.2693 168.029 33.016 168.029 33.976C168.029 34.936 168.275 35.6827 168.765 36.216C169.256 36.7493 169.885 37.016 170.653 37.016C171.421 37.016 172.051 36.7493 172.541 36.216C173.032 35.6827 173.277 34.936 173.277 33.976ZM190.643 19.32V43H183.539V19.32H190.643Z" fill="#2790C3"/>
<g clip-path="url(#clip0_507_798)">
<path d="M46.0228 4.98154C43.0699 1.61582 37.732 0.172852 30.9033 0.172852H11.0845C10.4088 0.172747 9.75528 0.413744 9.24144 0.852492C8.7276 1.29124 8.38718 1.89894 8.28141 2.56628L0.0292271 54.9037C-0.134799 55.9357 0.664353 56.8703 1.71039 56.8703H13.9458L17.0187 37.3797L16.9233 37.9901C17.1422 36.6124 18.3205 35.5962 19.7158 35.5962H25.53C36.9521 35.5962 45.8958 30.9569 48.5084 17.5361C48.5859 17.1392 48.6531 16.7529 48.7112 16.3754C48.3814 16.2008 48.3814 16.2008 48.7112 16.3754C49.4892 11.415 48.7059 8.03849 46.0228 4.98154Z" fill="#27346A"/>
<path d="M21.7004 14.5885C22.0348 14.429 22.4008 14.3465 22.7713 14.3469H38.3089C40.1488 14.3469 41.8649 14.4667 43.4331 14.7191C43.8719 14.7891 44.3085 14.8726 44.7421 14.9696C45.3568 15.1052 45.9643 15.2712 46.5625 15.4669C47.3335 15.7244 48.0515 16.0243 48.7114 16.3754C49.4891 11.4131 48.7059 8.03849 46.0228 4.98154C43.0682 1.61582 37.732 0.172852 30.9033 0.172852H11.0828C9.68729 0.172852 8.50012 1.1888 8.28141 2.56628L0.0292282 54.9017C-0.134798 55.9355 0.664354 56.8688 1.7087 56.8688H13.9458L20.321 16.4407C20.3838 16.0434 20.5421 15.6672 20.7824 15.3446C21.0227 15.0219 21.3377 14.7625 21.7004 14.5885Z" fill="#27346A"/>
<path d="M48.5083 17.5362C45.8957 30.955 36.9523 35.5963 25.53 35.5963H19.714C18.3187 35.5963 17.1403 36.6124 16.9235 37.9901L13.1006 62.2243C12.9578 63.1275 13.6563 63.9459 14.5701 63.9459H24.8842C25.4751 63.9458 26.0465 63.7348 26.4957 63.351C26.9448 62.9672 27.2424 62.4357 27.3347 61.8521L27.4351 61.3266L29.3791 49.0064L29.5043 48.3255C29.5967 47.7419 29.8941 47.2105 30.3433 46.8267C30.7924 46.4429 31.3638 46.2319 31.9546 46.2317H33.4982C43.4896 46.2317 51.3131 42.1726 53.5993 30.433C54.5535 25.5271 54.0598 21.4311 51.5354 18.554C50.7697 17.6826 49.8188 16.9629 48.7111 16.3755C48.6511 16.7548 48.5861 17.1392 48.5083 17.5362Z" fill="#2790C3"/>
<path d="M45.9778 15.2853C45.5704 15.1663 45.1592 15.061 44.7448 14.9695C44.3109 14.8741 43.8744 14.7912 43.4358 14.7207C41.8659 14.4666 40.151 14.3467 38.3094 14.3467H22.7737C22.403 14.3461 22.0369 14.4293 21.7029 14.5902C21.3397 14.7635 21.0242 15.0228 20.7838 15.3455C20.5434 15.6683 20.3854 16.0447 20.3233 16.4424L17.0211 37.3797L16.9258 37.99C17.143 36.6123 18.3213 35.5962 19.7168 35.5962H25.5327C36.9548 35.5962 45.8983 30.9568 48.5108 17.5361C48.5886 17.1392 48.6539 16.7545 48.7139 16.3754C48.0524 16.0264 47.3361 15.7242 46.565 15.4686C46.3704 15.4041 46.1747 15.343 45.978 15.2853" fill="#1F264F"/>
</g>
<defs>
<clipPath id="clip0_507_798">
<rect width="54.2517" height="64" fill="white"/>
</clipPath>
</defs>
</svg>
