<svg width="694" height="1117" viewBox="0 0 694 1117" fill="none" xmlns="http://www.w3.org/2000/svg">
<g opacity="0.6">
<path d="M326.294 716.195C326.294 716.195 273.986 530.976 224.26 547.058C174.534 563.139 286.811 663.405 300.33 717.806L326.294 716.195Z" fill="#3A6E49"/>
</g>
<path d="M536.692 531.468C541.6 534.985 544.177 534.473 545.555 532.55C546.934 530.626 546.592 528.021 541.685 524.504C532.747 518.096 525.93 518.482 525.93 518.482C525.93 518.482 527.624 524.968 536.692 531.468Z" fill="#3A6E49"/>
<path d="M526.529 672.065L527.672 672.069C527.673 671.894 527.85 654.161 536.12 628.918C543.752 605.627 560.031 570.995 594.253 538.272L593.464 537.447C559.053 570.349 542.688 605.183 535.019 628.611C526.703 654.013 526.529 671.887 526.529 672.065Z" fill="#3A6E49"/>
<path d="M558.864 579.547L559.878 579.021C540.77 542.185 558.059 501.157 558.236 500.747L557.187 500.294C557.008 500.71 539.501 542.221 558.864 579.547Z" fill="#3A6E49"/>
<path d="M577.686 562.649C589.245 563.705 598.509 558.715 598.614 558.657L598.065 557.656C597.947 557.72 586.077 564.097 572.617 560.617L572.33 561.723C574.151 562.193 575.946 562.49 577.686 562.649Z" fill="#3A6E49"/>
<path d="M595.591 531.997C589.074 536.878 588.286 539.865 589.704 541.759C591.123 543.653 594.211 543.737 600.728 538.856C612.599 529.965 615.768 522.238 615.768 522.238C615.768 522.238 607.635 522.976 595.591 531.997Z" fill="#3A6E49"/>
<path d="M595.899 554.7C588.213 557.388 586.561 559.999 587.343 562.233C588.124 564.466 591.043 565.477 598.729 562.788C612.728 557.89 618.079 551.479 618.079 551.479C618.079 551.479 610.102 549.73 595.899 554.7Z" fill="#3A6E49"/>
<path d="M567.703 543.459C565.797 549.188 567.05 551.497 569.295 552.245C571.541 552.991 573.928 551.893 575.834 546.164C579.306 535.729 576.918 529.333 576.918 529.333C576.918 529.333 571.225 532.872 567.703 543.459Z" fill="#3A6E49"/>
<path d="M555.21 495.466C552.6 503.178 553.641 506.087 555.882 506.845C558.123 507.603 560.717 505.924 563.326 498.212C568.081 484.163 566.32 476 566.32 476C566.32 476 560.033 481.212 555.21 495.466Z" fill="#3A6E49"/>
<path d="M675.387 176.468C670.48 179.985 667.902 179.473 666.524 177.55C665.145 175.626 665.487 173.021 670.394 169.504C679.333 163.096 686.149 163.482 686.149 163.482C686.149 163.482 684.456 169.968 675.387 176.468Z" fill="#3A6E49"/>
<path d="M685.551 317.065L684.407 317.069C684.406 316.894 684.229 299.161 675.959 273.919C668.327 250.627 652.048 215.995 617.826 183.273L618.616 182.447C653.027 215.349 669.391 250.183 677.06 273.611C685.376 299.013 685.55 316.887 685.551 317.065Z" fill="#3A6E49"/>
<path d="M653.215 224.547L652.201 224.021C671.309 187.185 654.02 146.157 653.843 145.747L654.892 145.294C655.071 145.71 672.578 187.221 653.215 224.547Z" fill="#3A6E49"/>
<path d="M634.393 207.649C622.834 208.705 613.57 203.715 613.465 203.657L614.014 202.656C614.132 202.72 626.002 209.097 639.462 205.617L639.749 206.723C637.928 207.193 636.133 207.49 634.393 207.649Z" fill="#3A6E49"/>
<path d="M616.488 176.997C623.005 181.878 623.793 184.866 622.375 186.759C620.956 188.653 617.868 188.737 611.351 183.856C599.48 174.965 596.312 167.239 596.312 167.239C596.312 167.239 604.444 167.977 616.488 176.997Z" fill="#3A6E49"/>
<path d="M616.18 199.7C623.866 202.388 625.518 204.999 624.736 207.233C623.955 209.466 621.036 210.477 613.35 207.788C599.351 202.89 594 196.479 594 196.479C594 196.479 601.977 194.73 616.18 199.7Z" fill="#3A6E49"/>
<path d="M644.376 188.459C646.283 194.188 645.029 196.497 642.784 197.245C640.538 197.991 638.151 196.893 636.245 191.164C632.773 180.729 635.161 174.333 635.161 174.333C635.161 174.333 640.854 177.872 644.376 188.459Z" fill="#3A6E49"/>
<path d="M656.869 140.466C659.479 148.178 658.438 151.087 656.197 151.845C653.956 152.603 651.362 150.924 648.753 143.212C643.998 129.163 645.759 121 645.759 121C645.759 121 652.046 126.212 656.869 140.466Z" fill="#3A6E49"/>
<path d="M625.098 241.908C622.103 247.15 619.547 247.758 617.492 246.584C615.438 245.41 614.663 242.899 617.657 237.657C623.113 228.108 629.47 225.618 629.47 225.618C629.47 225.618 630.633 232.219 625.098 241.908Z" fill="#3A6E49"/>
<path d="M692.925 365.48L691.888 365.961C691.814 365.802 684.263 349.756 666.227 330.255C649.584 312.263 620.353 287.564 575.609 272.079L575.982 270.999C620.974 286.569 650.366 311.416 667.1 329.517C685.244 349.143 692.85 365.319 692.925 365.48Z" fill="#3A6E49"/>
<path d="M624.977 294.852L623.836 294.796C625.856 253.348 593.043 223.258 592.711 222.958L593.476 222.11C593.812 222.413 627.025 252.853 624.977 294.852Z" fill="#3A6E49"/>
<path d="M600.825 287.335C590.758 293.111 580.258 292.436 580.138 292.427L580.22 291.288C580.354 291.297 593.802 292.147 604.587 283.375L605.309 284.261C603.849 285.447 602.341 286.465 600.825 287.335Z" fill="#3A6E49"/>
<path d="M571.777 266.932C579.735 268.653 581.696 271.041 581.196 273.353C580.696 275.666 577.923 277.029 569.966 275.308C555.469 272.172 549.369 266.469 549.369 266.469C549.369 266.469 557.07 263.751 571.777 266.932Z" fill="#3A6E49"/>
<path d="M580.958 287.698C589.064 286.939 591.654 288.624 591.874 290.98C592.095 293.336 589.862 295.472 581.756 296.23C566.989 297.611 559.452 294.012 559.452 294.012C559.452 294.012 565.975 289.099 580.958 287.698Z" fill="#3A6E49"/>
<path d="M601.904 265.73C606.025 270.144 605.847 272.765 604.118 274.38C602.388 275.995 599.76 275.991 595.64 271.577C588.136 263.538 587.641 256.729 587.641 256.729C587.641 256.729 594.29 257.574 601.904 265.73Z" fill="#3A6E49"/>
<path d="M593.262 216.896C598.849 222.82 599.115 225.897 597.393 227.521C595.672 229.144 592.614 228.699 587.029 222.775C576.853 211.985 575.052 203.831 575.052 203.831C575.052 203.831 582.938 205.949 593.262 216.896Z" fill="#3A6E49"/>
<path d="M489.327 691.454C489.327 691.454 623.681 518.992 669.109 557.207C714.536 595.421 553.474 652.824 515.954 704.267L489.327 691.454Z" fill="#3A6E49"/>
<path d="M442.654 785.007C447.799 796.484 456.9 806.715 468.155 814.949C469.987 815.412 471.816 815.877 473.643 816.341C498.665 822.709 523.239 829.069 545.402 834.701L545.405 834.702C548.703 834.07 551.907 833.209 554.994 832.104L554.995 832.101C557.294 831.28 559.531 830.32 561.684 829.222C563.608 828.242 565.303 827.055 566.793 825.74C575.908 817.715 577.475 804.912 577.475 804.912C590.102 783.77 587.803 787.02 626.886 784.841C654.906 783.261 652.489 758.836 659.856 738.992L659.857 738.987C659.995 738.62 660.133 738.256 660.279 737.891L660.279 737.888C663.188 730.496 667.588 723.826 675.607 719.33C684.115 714.568 692.499 708.362 699.489 701.445C699.49 701.442 699.493 701.442 699.493 701.442C700.07 700.868 700.64 700.29 701.2 699.707C714.915 685.416 722.427 668.434 713.037 654.902L713.035 654.898C712.812 654.578 712.582 654.265 712.341 653.952C710.657 651.742 708.506 649.632 705.837 647.647C678.03 626.992 658.163 641.355 633.673 651.316C620.136 656.82 595.864 643.664 574.161 639.805L574.147 639.802C573.838 639.743 573.529 639.691 573.221 639.641C558.208 637.149 544.526 639.335 536.624 655.55C535.482 657.892 534.46 660.525 533.572 663.48L533.569 663.491C533.426 663.968 533.284 664.437 533.14 664.902C529.677 676.187 526.157 684.377 522.403 690.46C519.694 694.847 516.868 698.142 513.848 700.715C509.845 704.129 505.508 706.277 500.679 708.024C496.116 709.676 491.113 710.973 485.538 712.648C482.909 713.438 480.148 714.314 477.249 715.352C473.381 716.735 469.26 718.405 464.851 720.548C462.56 721.663 460.361 722.779 458.325 723.959C454.506 726.165 451.274 728.592 449.143 731.641C448.498 732.562 447.888 733.481 447.303 734.398C435.945 752.284 435.805 769.746 442.654 785.007Z" fill="#88C78A"/>
<path d="M486.133 787.395L484.39 785.983C485.012 785.214 548.556 708.434 712.682 653.836L713.391 655.966C549.882 710.36 486.753 786.631 486.133 787.395Z" fill="white"/>
<path d="M569.397 691.991C541.57 679.059 532.952 664.658 532.598 664.051L534.537 662.921C534.62 663.064 543.227 677.354 570.344 689.956L569.397 691.991Z" fill="white"/>
<path d="M580.273 713.975C570.834 705.058 566.64 689.322 568.142 668.467C569.266 652.849 573.214 639.661 573.254 639.53L575.401 640.179C575.246 640.693 560.111 691.842 581.815 712.345L580.273 713.975Z" fill="white"/>
<path d="M622.637 696.892C619.376 695.517 617.54 694.536 617.456 694.491L618.53 692.521C618.915 692.731 657.599 713.35 700.839 698.641L701.561 700.765C666.719 712.617 634.788 702.017 622.637 696.892Z" fill="white"/>
<path d="M659.298 739.918C645.928 731.862 639.679 721.63 636.79 714.466C633.646 706.666 633.686 700.828 633.689 700.583L635.933 700.612C635.931 700.836 635.977 723.248 660.457 737.996L659.298 739.918Z" fill="white"/>
<path d="M100.623 131.903C105.768 143.38 114.869 153.611 126.123 161.844C127.956 162.307 129.785 162.772 131.611 163.237C156.634 169.605 181.207 175.964 203.371 181.597L203.374 181.597C206.671 180.965 209.876 180.104 212.963 178.999L212.964 178.996C215.263 178.176 217.5 177.216 219.653 176.118C221.577 175.138 223.272 173.95 224.762 172.636C233.876 164.61 235.444 151.808 235.444 151.808C248.07 130.665 245.772 133.915 284.855 131.736C312.875 130.156 310.458 105.732 317.825 85.8872L317.826 85.8819C317.964 85.5149 318.102 85.151 318.248 84.7862L318.248 84.7835C321.157 77.3915 325.556 70.7216 333.576 66.2257C342.083 61.4635 350.468 55.2576 357.458 48.3399C357.459 48.3372 357.461 48.3377 357.461 48.3377C358.038 47.7637 358.608 47.1852 359.169 46.6024C372.884 32.3112 380.396 15.3296 371.006 1.79732L371.004 1.79375C370.781 1.47372 370.551 1.16035 370.31 0.846979C368.626 -1.36304 366.475 -3.47243 363.805 -5.45729C335.999 -26.1125 316.132 -11.7492 291.642 -1.78899C278.105 3.71568 253.833 -9.44032 232.13 -13.2997L232.116 -13.3027C231.806 -13.3612 231.498 -13.414 231.19 -13.4641C216.177 -15.9551 202.495 -13.7699 194.593 2.44533C193.451 4.787 192.429 7.42032 191.541 10.3754L191.538 10.3861C191.394 10.863 191.253 11.332 191.109 11.7978C187.645 23.0828 184.126 31.2722 180.371 37.3549C177.663 41.7426 174.837 45.0377 171.817 47.6103C167.814 51.0246 163.477 53.1721 158.647 54.9199C154.085 56.5718 149.082 57.8688 143.507 59.5429C140.877 60.3336 138.117 61.2091 135.218 62.2472C131.35 63.6301 127.228 65.3007 122.819 67.4438C120.529 68.5581 118.33 69.6742 116.294 70.8545C112.475 73.0606 109.243 75.4878 107.112 78.536C106.467 79.4571 105.857 80.3768 105.271 81.2939C93.9141 99.1793 93.7736 116.641 100.623 131.903Z" fill="#88C78A"/>
<path d="M144.102 134.29L142.359 132.878C142.981 132.109 206.525 55.3298 370.651 0.731689L371.359 2.86148C207.85 57.2557 144.722 133.526 144.102 134.29Z" fill="white"/>
<path d="M227.366 38.8863C199.538 25.9546 190.92 11.553 190.567 10.9467L192.505 9.81641C192.589 9.95913 201.196 24.2494 228.312 36.8513L227.366 38.8863Z" fill="white"/>
<path d="M238.242 60.8704C228.803 51.9536 224.608 36.2171 226.111 15.3624C227.235 -0.255375 231.183 -13.4437 231.223 -13.5745L233.37 -12.9255C233.214 -12.4114 218.08 38.7369 239.784 59.2406L238.242 60.8704Z" fill="white"/>
<path d="M280.606 43.7877C277.344 42.4123 275.508 41.4314 275.425 41.3862L276.499 39.4164C276.883 39.6265 315.568 60.2454 358.808 45.5363L359.529 47.6599C324.688 59.5123 292.757 48.9121 280.606 43.7877Z" fill="white"/>
<path d="M317.267 86.8132C303.897 78.7576 297.647 68.5253 294.759 61.3611C291.615 53.5618 291.655 47.7238 291.657 47.4786L293.902 47.507C293.9 47.7318 293.946 70.1432 318.426 84.8917L317.267 86.8132Z" fill="white"/>
<path d="M346.356 1123H555.347C563.347 1104.69 576.751 1072.74 589.291 1036.95V1036.94C590.643 1033.09 591.981 1029.2 593.306 1025.26V1025.25C595.904 1017.54 598.426 1009.7 600.824 1001.83C603.014 994.658 605.092 987.46 607.02 980.301C608.355 975.359 609.613 970.439 610.784 965.564V965.559C612.091 960.125 613.288 954.753 614.356 949.465H614.361C614.613 948.219 614.857 946.978 615.096 945.742V945.728C615.176 945.32 615.256 944.913 615.331 944.509C616.218 939.798 616.998 935.166 617.654 930.64V930.636C618.048 927.91 618.399 925.224 618.7 922.582C618.7 922.578 618.7 922.578 618.704 922.573C618.846 921.292 618.979 920.024 619.103 918.766C619.13 918.522 619.152 918.278 619.174 918.034C619.347 916.213 619.493 914.413 619.613 912.64C619.653 912.104 619.688 911.572 619.715 911.04C619.742 910.614 619.768 910.193 619.79 909.772V909.768C620.105 903.833 620.118 898.186 619.781 892.889C619.75 892.415 619.719 891.945 619.68 891.475C619.516 889.294 619.289 887.175 618.997 885.123C618.576 882.136 618.017 879.295 617.313 876.609V876.604C616.838 874.796 616.298 873.063 615.69 871.405C615.393 870.594 615.074 869.8 614.746 869.029C609.857 857.607 602.934 849.251 594.45 843.334C585.891 837.372 575.736 833.897 564.456 832.288C561.916 831.92 559.323 831.65 556.672 831.473C555.905 831.415 555.139 831.371 554.363 831.335C547.829 831.012 541.003 831.194 533.956 831.783C513.234 833.503 490.606 838.702 468.054 844.739C449.828 849.615 431.646 855.04 414.563 859.619C411.478 860.448 408.535 861.671 405.725 863.267C401.204 865.824 397.028 869.335 393.168 873.652C388.921 878.39 385.061 884.104 381.546 890.602C380.07 893.323 378.656 896.187 377.304 899.174C374.374 905.628 371.719 912.667 369.317 920.14C367.455 925.928 365.744 931.974 364.166 938.224C363.9 939.292 363.634 940.365 363.373 941.442C363.125 942.457 362.885 943.481 362.646 944.509C361.05 951.349 359.605 958.392 358.306 965.559V965.564C357.588 969.495 356.915 973.462 356.29 977.451C355.625 981.636 355 985.829 354.424 990.053V990.057C353.462 997.069 352.611 1004.12 351.866 1011.12C351.729 1012.39 351.596 1013.66 351.467 1014.94C347.908 1049.64 346.751 1083.01 346.45 1106.41C346.365 1112.72 346.343 1118.31 346.356 1123Z" fill="#3A6E49"/>
<path d="M0.000793457 1094.45V1123H211.708C235.994 1117.66 259.876 1115.16 278.275 1114C280.917 1113.83 283.55 1113.69 286.165 1113.55C305.583 1112.6 326.673 1110.75 346.451 1106.41C387.242 1097.46 422.436 1077.9 425.805 1033.77C426.359 1026.55 426.062 1018.68 424.794 1010.08V1010.08C423.832 1003.52 422.303 996.56 420.158 989.135V989.131C418.606 983.75 416.731 978.134 414.511 972.274C413.678 970.071 412.795 967.833 411.869 965.564V965.559C410.442 962.089 408.904 958.538 407.251 954.904C406.284 952.78 405.278 950.631 404.232 948.454C404.232 948.454 400.832 947.377 393.909 945.959C391.701 945.502 389.14 945.01 386.21 944.509C385.048 944.31 383.834 944.11 382.557 943.907C378.027 943.188 372.779 942.466 366.795 941.801C365.683 941.681 364.539 941.562 363.374 941.442C354.881 940.573 345.037 939.838 333.809 939.403C316.053 938.712 294.843 938.765 270.084 940.214C262.136 940.68 252.394 942.138 241.366 944.509C235.98 945.666 230.289 947.04 224.354 948.623C224.163 948.671 223.968 948.725 223.773 948.778C222.258 949.181 220.724 949.602 219.177 950.037C216.557 950.772 213.893 951.544 211.194 952.359C199.014 956.016 186.067 960.44 172.796 965.559C172.791 965.559 172.787 965.564 172.782 965.564C157.65 971.401 142.092 978.147 126.778 985.705H126.773C114.784 991.618 102.945 998.022 91.5621 1004.88C60.4994 1023.58 32.863 1045.61 15.0711 1069.99C9.47739 1077.65 4.48199 1085.8 0.000793457 1094.45Z" fill="#2A3814"/>
<path d="M108.244 1123H399.492C430.032 1115 460.678 1106.72 486.195 1094.92C511.717 1083.13 532.12 1067.81 542.177 1045.73C547.416 1034.24 549.85 1020.9 548.737 1005.28C548.276 998.741 547.19 991.799 545.426 984.419C544.003 978.427 542.124 972.146 539.77 965.564V965.559C538.724 962.625 537.581 959.633 536.344 956.575C536.344 956.575 534.465 957.08 530.6 957.926C523.082 959.58 508.065 962.527 484.883 965.559C484.87 965.559 484.861 965.564 484.848 965.564C466.577 967.953 443.24 970.386 414.509 972.274C411.145 972.496 407.705 972.709 404.19 972.913C387.684 973.883 371.701 975.395 356.289 977.451C333.537 980.474 312.022 984.685 291.854 990.044C291.85 990.044 291.845 990.049 291.841 990.049H291.836C290.196 990.483 288.565 990.926 286.943 991.378C276.256 994.348 265.964 997.65 256.067 1001.28C248.398 1004.09 240.97 1007.11 233.767 1010.32C233.762 1010.32 233.762 1010.32 233.762 1010.32C226.755 1013.44 219.969 1016.75 213.409 1020.25C212.77 1020.58 212.136 1020.92 211.507 1021.27C180.303 1038.16 154.275 1059.27 133.709 1084.4C133.128 1085.11 132.552 1085.82 131.98 1086.53C128.155 1091.32 124.525 1096.25 121.089 1101.32C116.285 1108.41 112.021 1115.62 108.244 1123Z" fill="#2A3814"/>
<path d="M512.416 671.023C512.416 671.023 432.873 600.998 343.451 621.346C300.748 631.063 268.156 661.142 253.033 721.319C236.489 787.158 238.414 885.722 211.189 952.362C211.189 952.362 334.985 1036.62 531.008 1046.88C558.114 1048.3 562.589 1025.18 561.813 979.344C560.04 874.733 554.156 738.749 512.416 671.023Z" fill="#7C9050"/>
<path d="M570.036 686.669L478.055 703.958C478.055 703.958 299.343 794.8 254.316 795.176C209.29 795.551 208.526 719.345 208.526 719.345C208.526 719.345 244.841 657.703 320.954 628.62C328.103 625.876 335.594 623.436 343.447 621.352C356.631 617.864 370.03 614.807 383.442 614.653C535.274 612.912 570.036 686.669 570.036 686.669Z" fill="#7C9050"/>
<path d="M570.037 686.669C572.026 693.92 552.746 706.019 526.972 713.694C501.199 721.37 478.692 721.712 476.701 714.461C474.712 707.21 493.992 695.111 519.766 687.436C545.539 679.761 568.046 679.418 570.037 686.669Z" fill="#66192D"/>
<path d="M343.817 620.725L343.845 619.744C343.733 619.741 332.679 619.353 328.216 612.796C325.9 609.393 325.733 604.885 327.719 599.397C328.652 596.817 329.537 594.436 330.317 592.335C335.805 577.566 337.857 572.04 333.395 561.809L332.496 562.201C336.8 572.07 334.935 577.09 329.398 591.993C328.617 594.096 327.731 596.479 326.796 599.063C324.697 604.865 324.902 609.672 327.407 613.351C329.38 616.247 332.85 618.441 337.441 619.695C340.88 620.633 343.699 620.722 343.817 620.725Z" fill="#66192D"/>
<path d="M332.946 562.005C332.946 562.005 340.038 577.806 332.66 597.415C325.282 617.024 340.899 632.028 354.38 622.279C367.861 612.53 375.548 640.538 394.906 614.623C408.167 596.871 332.946 562.005 332.946 562.005Z" fill="#66192D"/>
<path d="M414.409 607.116L399.353 585.622L394.955 579.34L369.084 542.404L380.826 583.806L387.877 608.656L389.863 615.657C391.507 621.453 376.391 632.969 389.28 638.701C404.035 645.264 430.88 633.32 436.711 617.45C436.711 617.45 419.275 614.062 414.409 607.116Z" fill="#FDAD9B"/>
<path d="M399.253 584.918C399.294 585.151 399.327 585.386 399.353 585.622C401.161 599.379 387.981 608.713 387.981 608.713L387.877 608.656L380.826 583.806C384.921 581.264 390.885 578.288 394.955 579.34C397.082 579.89 398.69 581.539 399.253 584.918Z" fill="#66192D"/>
<path d="M329.08 557.709C323.502 530.802 336.659 505.324 358.468 500.802C380.277 496.28 402.48 514.426 408.059 541.333C413.637 568.24 400.48 593.718 378.671 598.24C356.862 602.763 334.659 584.616 329.08 557.709Z" fill="#FDAD9B"/>
<path d="M404.301 549.777C400.714 554.975 394.55 556.71 390.534 553.651C386.518 550.592 386.171 543.898 389.758 538.7C393.346 533.501 399.509 531.767 403.525 534.825C407.542 537.884 407.889 544.578 404.301 549.777Z" fill="#FDAD9B"/>
<path d="M364.849 550.783C364.57 550.767 364.304 550.624 364.139 550.374C363.859 549.953 363.973 549.385 364.394 549.104C364.643 548.939 370.044 544.577 376.56 549.286C376.971 549.583 377.081 550.146 376.792 550.563C376.504 550.98 375.985 550.986 375.515 550.795C370.815 548.877 365.616 550.499 365.409 550.634C365.237 550.747 365.04 550.795 364.849 550.783Z" fill="#060633"/>
<path d="M374.002 559.181C374.514 561.309 373.677 563.336 372.133 563.707C370.589 564.079 368.922 562.656 368.409 560.528C367.897 558.399 368.734 556.372 370.278 556.001C371.822 555.628 373.49 557.053 374.002 559.181Z" fill="#060633"/>
<path d="M333.757 562.113C333.494 562.203 333.193 562.172 332.945 562.005C332.526 561.721 332.416 561.153 332.698 560.733C332.865 560.486 336.197 554.395 344.016 556.267C344.509 556.385 344.826 556.864 344.717 557.36C344.608 557.854 344.132 558.058 343.624 558.06C338.548 558.077 334.359 561.556 334.22 561.76C334.103 561.932 333.939 562.051 333.757 562.113Z" fill="#060633"/>
<path d="M345.42 566.391C346.705 568.163 346.703 570.356 345.417 571.288C344.131 572.22 342.047 571.538 340.763 569.765C339.478 567.993 339.48 565.8 340.766 564.868C342.052 563.937 344.136 564.618 345.42 566.391Z" fill="#060633"/>
<path d="M343.532 513.11C343.532 513.11 347.888 529.837 369.596 528.342C391.303 526.848 407.713 532.76 408.032 548.555C408.35 564.35 381.075 614.315 408.618 621.35C436.159 628.385 425.901 595.341 454.109 595.003C482.316 594.665 493.361 562.005 456.675 540.306C431.97 525.694 429.684 466 360.19 482.979C290.696 499.959 327.925 550.493 327.925 550.493C327.925 550.493 347.444 531.768 343.532 513.11Z" fill="#66192D"/>
<path d="M413.152 622.486L413.257 621.914C408.431 621.04 405.037 618.762 403.17 615.145C396.551 602.324 409.6 574.49 419.128 554.166C420.959 550.261 422.688 546.572 424.152 543.268C429.242 531.782 427.401 519.72 419.348 511.788C410.402 502.977 396.531 501.34 383.147 507.515C376.011 510.807 365.206 514.049 354.261 510.789C347.716 508.839 344.178 505.434 344.142 505.4L343.735 505.816C343.881 505.959 347.391 509.342 354.062 511.337C360.204 513.175 370.279 514.094 383.391 508.044C396.549 501.973 410.171 503.566 418.939 512.203C426.936 520.078 428.685 531.603 423.621 543.032C422.159 546.331 420.43 550.017 418.601 553.919C409.022 574.352 395.902 602.337 402.652 615.412C404.608 619.198 408.14 621.578 413.152 622.486Z" fill="white"/>
<path d="M349.498 559.364C349.543 559.307 349.605 559.236 349.684 559.165C349.906 558.93 350.238 558.62 350.682 558.274L350.686 558.27C350.686 558.274 350.686 558.274 350.691 558.278C350.753 558.456 350.81 558.633 350.872 558.815C351.258 559.981 351.595 561.16 351.883 562.339C352.069 563.088 352.229 563.837 352.366 564.586C352.379 564.652 352.393 564.714 352.402 564.781C352.441 564.994 352.481 565.206 352.512 565.419C352.526 565.472 352.535 565.525 352.539 565.579C352.561 565.712 352.583 565.849 352.605 565.982C352.614 566.026 352.619 566.071 352.628 566.115C352.659 566.328 352.69 566.545 352.721 566.758C352.738 566.9 352.756 567.037 352.774 567.179C352.854 567.786 352.92 568.389 352.965 568.987C352.973 569.129 352.987 569.271 352.995 569.413C353.026 569.838 353.053 570.259 353.071 570.68C353.089 571.097 353.097 571.518 353.102 571.935C352.867 571.815 352.623 571.678 352.388 571.562C352.065 567.609 351.081 563.456 349.458 559.409C349.467 559.395 349.481 559.382 349.498 559.364ZM336.081 540.518C340.726 542.862 345.177 547.41 348.572 553.42C348.833 553.868 349.073 554.316 349.294 554.768C349.299 554.772 349.299 554.772 349.299 554.777C349.343 554.865 349.383 554.954 349.414 555.043C348.842 555.442 348.364 555.832 347.978 556.173V556.169C347.672 555.548 347.353 554.954 347.012 554.338C343.741 548.483 339.463 544.143 335.053 541.998C335.394 541.524 335.736 541.027 336.081 540.518ZM320.949 541.963C321.428 541.506 321.924 541.085 322.438 540.739C322.443 540.739 322.443 540.735 322.447 540.735C324.171 539.511 326.108 538.851 328.174 538.714H328.178C329.096 538.656 330.044 538.687 330.993 538.82C332.088 538.988 333.182 539.277 334.282 539.702C334.313 539.715 334.344 539.729 334.375 539.742H334.379C334.942 539.964 335.505 540.225 336.081 540.518C340.726 542.862 345.177 547.41 348.572 553.42C348.833 553.868 349.073 554.316 349.294 554.768C349.299 554.772 349.299 554.772 349.299 554.777C349.321 554.812 349.339 554.852 349.356 554.888C349.383 554.923 349.392 554.981 349.423 555.034C349.427 555.034 349.427 555.029 349.432 555.034C349.432 555.034 349.432 555.034 349.441 555.029C349.95 556.049 350.425 557.091 350.859 558.141V558.145C352.198 561.332 353.133 564.621 353.687 567.844C353.957 569.417 354.126 570.986 354.21 572.533C354.219 572.675 354.223 572.817 354.228 572.959C354.542 580.201 352.734 586.686 348.807 590.431C348.771 590.458 348.754 590.476 348.723 590.502L348.718 590.507C347.069 592.054 345.185 593.047 343.129 593.477C341.715 593.76 340.265 593.809 338.745 593.574C337.269 593.357 335.793 592.9 334.317 592.209C334.313 592.209 334.308 592.204 334.304 592.204C333.218 591.704 332.127 591.079 331.055 590.334C330.922 590.236 330.789 590.143 330.656 590.046C330.514 589.944 330.372 589.842 330.235 589.731C326.862 587.187 323.719 583.486 321.179 578.956C313.64 565.579 313.547 548.992 320.949 541.963ZM320.949 574.492C320.962 574.519 320.971 574.541 320.984 574.568C320.984 574.581 320.989 574.594 320.989 574.603C320.989 574.608 320.989 574.608 320.993 574.612C320.998 574.625 321.006 574.643 321.02 574.656C321.534 575.813 322.123 576.957 322.748 578.074C325.058 582.196 327.881 585.582 330.886 587.963C331.019 588.073 331.152 588.175 331.285 588.277C331.423 588.384 331.565 588.49 331.702 588.588C332.699 589.323 333.71 589.935 334.734 590.431C334.738 590.436 334.747 590.436 334.752 590.44C336.17 591.141 337.602 591.602 339.016 591.814C342.163 592.222 345.022 591.415 347.318 589.368L347.322 589.363C347.411 589.31 347.477 589.239 347.561 589.164C351.342 585.551 352.969 579.115 352.419 571.961C352.41 571.828 352.402 571.695 352.388 571.562C352.065 567.609 351.081 563.456 349.458 559.409C349.015 558.323 348.536 557.241 347.978 556.173V556.169C347.672 555.548 347.353 554.954 347.012 554.338C343.741 548.483 339.463 544.143 335.053 541.998C333.608 541.298 332.167 540.832 330.727 540.606C329.774 540.469 328.883 540.447 328.014 540.557H327.996C327.527 540.58 327.083 540.659 326.645 540.766C326.64 540.761 326.64 540.766 326.64 540.766C326.631 540.77 326.618 540.77 326.609 540.775C326.591 540.779 326.591 540.779 326.574 540.784C325.359 541.089 324.247 541.617 323.214 542.384C322.864 542.641 322.518 542.938 322.177 543.252C315.962 549.161 315.603 562.569 320.944 574.479C320.944 574.483 320.949 574.488 320.949 574.492ZM336.081 540.518C340.726 542.862 345.177 547.41 348.572 553.42C348.833 553.868 349.073 554.316 349.294 554.768C349.299 554.772 349.299 554.772 349.299 554.777C349.343 554.865 349.383 554.954 349.414 555.043C348.842 555.442 348.364 555.832 347.978 556.173V556.169C347.672 555.548 347.353 554.954 347.012 554.338C343.741 548.483 339.463 544.143 335.053 541.998C335.394 541.524 335.736 541.027 336.081 540.518Z" fill="#6E956C"/>
<g opacity="0.3">
<path d="M392.326 534.664C398.378 547.918 396.411 563.903 387.932 570.369C379.453 576.834 367.673 571.331 361.62 558.077C355.567 544.823 357.534 528.838 366.014 522.373C374.493 515.907 386.273 521.41 392.326 534.664Z" fill="white"/>
</g>
<g opacity="0.3">
<path d="M349.189 554.522C355.264 567.838 354.176 583.868 346.76 590.327C339.344 596.786 328.409 591.227 322.335 577.912C316.26 564.596 317.349 548.566 324.764 542.107C332.18 535.648 343.115 541.207 349.189 554.522Z" fill="white"/>
</g>
<path d="M357.456 526.99V526.985C358.893 523.838 360.923 521.188 363.458 519.273C367.239 516.454 371.649 515.563 376.308 516.72C382.331 518.236 387.81 523.041 391.591 530.013C391.595 530.017 391.595 530.022 391.6 530.026C391.999 530.762 392.384 531.542 392.757 532.322C393.133 533.164 393.497 534.006 393.798 534.844V534.849C394.764 537.366 395.456 539.933 395.899 542.503C396.635 546.816 396.666 551.133 396.041 555.109V555.114C395.039 561.266 392.468 566.638 388.448 570.029C388.444 570.033 388.444 570.033 388.439 570.038C388.187 570.277 387.912 570.503 387.637 570.703C385.784 572.126 383.754 573.043 381.636 573.486C380.456 573.726 379.233 573.819 377.974 573.739H377.97C376.955 573.695 375.904 573.539 374.832 573.287C368.148 571.589 362.142 565.907 358.339 557.654C357.993 556.904 357.665 556.129 357.372 555.353C357.368 555.349 357.368 555.34 357.363 555.335C356.947 554.267 356.592 553.19 356.264 552.109V552.104C353.671 543.292 354.19 533.967 357.456 526.99ZM358.033 551.825C358.361 552.933 358.742 554.006 359.181 555.078V555.083C359.407 555.694 359.668 556.302 359.948 556.904C362.332 562.064 365.754 566.257 369.579 568.877C369.615 568.921 369.668 568.956 369.721 568.983C369.721 568.987 369.725 568.987 369.725 568.987C369.734 568.996 369.748 569.001 369.757 569.005C371.521 570.202 373.387 571.066 375.288 571.554C376.006 571.727 376.738 571.837 377.438 571.895H377.451C380.731 572.179 383.852 571.288 386.564 569.289C386.861 569.058 387.154 568.832 387.424 568.588L387.429 568.584C391.006 565.486 393.319 560.65 394.228 555.127V555.114C395.256 549.121 394.658 542.304 392.304 535.908C392.304 535.903 392.3 535.899 392.3 535.895C391.959 534.946 391.564 534.006 391.148 533.089C390.549 531.79 389.889 530.58 389.18 529.419C388.683 528.594 388.151 527.801 387.571 527.07C387.571 527.065 387.571 527.056 387.566 527.052C387.566 527.039 387.557 527.025 387.544 527.016C386.591 525.718 385.541 524.534 384.455 523.497C381.835 520.984 378.887 519.22 375.856 518.453C373.79 517.921 371.747 517.872 369.805 518.284C367.935 518.666 366.157 519.481 364.531 520.687C362.279 522.393 360.471 524.729 359.167 527.495C359.167 527.5 359.163 527.504 359.163 527.508C355.954 534.139 355.457 543.221 358.033 551.82V551.825Z" fill="#6E956C"/>
<path d="M348.406 560.114C348.774 560.038 349.117 559.835 349.368 559.518C349.514 559.329 353.079 555.12 360.708 554.995C361.598 554.943 362.376 554.225 362.369 553.3C362.362 552.374 361.6 551.632 360.679 551.664C351.431 551.647 346.951 557.185 346.747 557.413C346.182 558.14 346.297 559.202 347.022 559.766C347.424 560.106 347.936 560.212 348.406 560.114Z" fill="#6E956C"/>
<path d="M365.136 587.704C367.885 587.704 370.761 586.871 373.623 585.227C376.761 583.425 378.783 581.288 378.867 581.198C379.366 580.667 379.339 579.834 378.808 579.335C378.279 578.837 377.445 578.863 376.947 579.393C376.875 579.469 369.655 587.005 362.013 584.594C361.318 584.376 360.578 584.76 360.359 585.454C360.141 586.148 360.526 586.888 361.22 587.107C362.484 587.506 363.795 587.704 365.136 587.704Z" fill="#66192D"/>
<path d="M674.992 948.122L675.107 949.398L676.57 965.559V965.564L677.146 971.973L677.275 973.378V973.382L677.403 974.796L679.163 994.202L690.802 1123H709.148L708.874 1116.25L703.785 990.851L702.992 971.357L702.934 969.925L702.877 968.502L702.761 965.564V965.559L702.606 961.796L677.563 949.394L674.992 948.122Z" fill="#66192D"/>
<path d="M0.00012207 933.366V997.752C27.2952 1000.5 58.0521 1002.89 91.5614 1004.88C134.875 1007.44 182.786 1009.3 233.763 1010.32H233.768C262.827 1010.9 292.884 1011.2 323.654 1011.2C329.03 1011.2 334.38 1011.2 339.712 1011.17H339.717C343.781 1011.16 347.833 1011.14 351.866 1011.12C376.768 1010.97 401.129 1010.62 424.794 1010.08C468.865 1009.09 510.522 1007.45 548.738 1005.28C553.029 1005.04 557.28 1004.79 561.482 1004.53C575.08 1003.7 588.214 1002.8 600.824 1001.83C629.888 999.609 656.199 997.047 679.163 994.202C687.86 993.12 696.082 992.003 703.786 990.851C752.055 983.608 780.192 974.912 780.192 965.559C780.192 961.938 775.973 958.414 767.999 955.037C767.999 955.037 767.999 955.037 767.994 955.037C759.253 951.331 745.991 947.803 728.838 944.509C728.138 944.372 727.433 944.239 726.719 944.106C715.824 942.063 703.422 940.112 689.664 938.273C689.19 938.206 688.711 938.144 688.232 938.082C684.602 937.599 680.874 937.125 677.058 936.66C676.588 936.602 676.114 936.544 675.635 936.491C674.434 936.34 673.219 936.199 671.996 936.057C671.779 936.026 671.566 936.004 671.345 935.977H671.34C671.087 935.946 670.839 935.915 670.587 935.888C668.96 935.698 667.315 935.507 665.658 935.321C650.827 933.645 634.777 932.081 617.654 930.636C610.456 930.033 603.067 929.448 595.501 928.885C584.22 928.047 572.541 927.263 560.493 926.527C541.846 925.392 522.321 924.39 502.047 923.531C469.384 922.143 434.767 921.124 398.731 920.53C393.195 920.437 387.627 920.353 382.029 920.286C377.809 920.228 373.572 920.18 369.317 920.14C367.65 920.122 365.984 920.109 364.308 920.095C361.378 920.064 358.44 920.042 355.492 920.024H355.488C344.969 919.949 334.354 919.914 323.654 919.914C290.765 919.914 258.683 920.259 227.766 920.924C225.661 920.969 223.564 921.013 221.472 921.062C212.918 921.257 204.456 921.474 196.092 921.722C188.153 921.948 180.308 922.201 172.556 922.471C149.862 923.269 127.987 924.24 107.093 925.366C100.475 925.72 93.9594 926.097 87.5456 926.487C87.5456 926.487 87.5456 926.487 87.5411 926.487C87.027 926.514 86.5173 926.545 86.0076 926.576C84.9881 926.638 83.973 926.704 82.9579 926.766C81.9208 926.828 80.8835 926.895 79.8552 926.961C78.889 927.019 77.9271 927.081 76.9697 927.143C75.1701 927.258 73.3839 927.378 71.6021 927.493C65.8 927.879 60.0865 928.278 54.475 928.686C35.1007 930.104 16.8878 931.669 0.00012207 933.366Z" fill="#3A6E49"/>
<path d="M0.00012207 944.509H780.192V965.559H0.00012207V944.509Z" fill="#3A6E49"/>
<path d="M0.00012207 912.317V976.702C36.5989 980.381 79.4254 983.44 126.768 985.705C126.773 985.705 126.773 985.705 126.777 985.705C174.998 988.014 227.899 989.499 283.673 989.982C286.39 990.004 289.12 990.026 291.855 990.044C302.36 990.119 312.963 990.155 323.654 990.155C333.995 990.155 344.256 990.119 354.424 990.053C376.817 989.902 398.766 989.592 420.157 989.131C464.672 988.174 506.776 986.569 545.427 984.419C550.981 984.109 556.46 983.79 561.863 983.457C577.567 982.496 592.646 981.441 607.021 980.302C621.834 979.127 635.903 977.864 649.142 976.516C658.991 975.514 668.379 974.468 677.275 973.382C686.353 972.274 694.921 971.117 702.935 969.925C712.358 968.524 721.019 967.066 728.865 965.559C733.909 964.593 738.611 963.604 742.964 962.598C753.411 960.174 761.824 957.647 767.994 955.037C767.999 955.037 767.999 955.037 767.999 955.037C775.973 951.655 780.192 948.131 780.192 944.509C780.192 936.886 761.501 929.701 728.452 923.384C715.767 920.96 700.967 918.664 684.292 916.518C682.328 916.266 680.338 916.013 678.321 915.765C672.395 915.034 666.247 914.324 659.891 913.633C659.86 913.628 659.829 913.624 659.802 913.62C655.264 913.132 650.623 912.649 645.871 912.17H645.849C643.606 911.949 641.341 911.727 639.05 911.51C638.54 911.457 638.026 911.408 637.512 911.364C637.374 911.346 637.237 911.337 637.099 911.324C635.628 911.182 634.147 911.044 632.658 910.907C632.1 910.858 631.546 910.805 630.983 910.756C627.308 910.419 623.576 910.091 619.791 909.768C619.467 909.741 619.143 909.715 618.82 909.688C618.27 909.639 617.721 909.595 617.167 909.546C603.816 908.425 589.814 907.379 575.222 906.412C570.103 906.076 564.912 905.748 559.647 905.428C548.614 904.759 537.276 904.139 525.654 903.562C487.393 901.674 446.105 900.305 402.707 899.547C395.752 899.422 388.744 899.321 381.688 899.232C380.23 899.21 378.771 899.192 377.304 899.174C373.665 899.134 370.008 899.094 366.338 899.063C361.157 899.015 355.949 898.975 350.718 898.944C341.765 898.891 332.74 898.864 323.654 898.864C291.682 898.864 260.478 899.192 230.364 899.817C229.034 899.844 227.704 899.875 226.379 899.906C217.004 900.105 207.741 900.336 198.592 900.601C182.613 901.049 166.993 901.59 151.781 902.21C137.898 902.773 124.362 903.403 111.202 904.099C105.794 904.382 100.448 904.675 95.1738 904.981C94.9212 904.998 94.673 905.012 94.4203 905.025C93.556 905.074 92.6961 905.127 91.8362 905.176C82.7408 905.717 73.8493 906.284 65.175 906.882C64.9268 906.896 64.6786 906.913 64.4348 906.931C64.2309 906.944 64.027 906.958 63.8231 906.975C59.8206 907.25 55.8668 907.534 51.9618 907.822C49.0851 908.035 46.235 908.252 43.4116 908.474C40.4108 908.708 37.4456 908.943 34.5068 909.183C22.4772 910.171 10.9572 911.217 0.00012207 912.317Z" fill="#C8C1E1"/>
<path d="M650.553 977.793C650.602 977.793 650.65 977.79 650.699 977.785C689.092 973.848 719.775 969.309 741.895 964.294C742.659 964.12 743.138 963.361 742.965 962.597C742.791 961.832 742.029 961.355 741.267 961.527C719.258 966.517 688.69 971.038 650.41 974.963C649.63 975.043 649.063 975.739 649.144 976.519C649.219 977.249 649.835 977.793 650.553 977.793Z" fill="#263238"/>
<path d="M143.09 625.271C143.09 625.271 168.703 650.678 154.332 677.41C139.96 704.142 112.827 697.963 100.26 684.721C87.6905 671.479 143.09 625.271 143.09 625.271Z" fill="white"/>
<path d="M95.3228 688.382C88.3608 690.786 80.6253 689.035 75.3998 683.844C60.7399 669.282 33.0566 637.627 36.4151 609.077C40.9584 570.461 122.734 595.448 144.314 609.077C164.962 622.118 174.172 661.157 95.3228 688.382Z" fill="#3A6E49"/>
<path d="M0.00130081 703.428V716.26L50.1014 663.833L54.3388 659.401L54.6846 659.041L52.4949 656.785L50.3319 654.56L44.8799 659.853L0.00130081 703.428Z" fill="#2F4A31"/>
<path d="M61.4082 655.264C61.4082 650.349 57.4234 646.363 52.5074 646.363C47.5913 646.363 43.6061 650.349 43.6061 655.264C43.6061 660.18 47.5909 664.165 52.5074 664.165C57.4238 664.165 61.4082 660.181 61.4082 655.264Z" fill="#66192D"/>
<path d="M589.638 886.132L648.877 884.089L716.019 885.761L716.194 890.817L651.25 887.995C644.723 888.22 639.632 894.198 639.879 901.348C640.125 908.498 645.616 914.111 652.142 913.886L716.912 911.653L717.041 915.386L590.798 919.74C582.325 920.032 575.198 912.746 574.878 903.465C574.558 894.184 581.166 886.424 589.638 886.132Z" fill="#FFBA41"/>
<path d="M634.117 901.422C633.797 892.142 640.406 884.381 648.877 884.089L716.019 885.762L716.194 890.817L651.25 887.996C644.723 888.22 639.632 894.199 639.879 901.349C640.125 908.498 645.616 914.112 652.142 913.886L716.912 911.653L717.041 915.387L650.036 917.697C641.565 917.99 634.437 910.703 634.117 901.422Z" fill="#FFBA41"/>
<path d="M651.251 888.008L716.194 890.817C710.336 891.761 708.572 897.716 707.763 900.892C706.122 907.334 711 911.04 716.91 911.578L716.913 911.666L652.144 913.9C645.617 914.125 640.126 908.511 639.88 901.362C639.633 894.212 644.724 888.235 651.251 888.008Z" fill="#FECAFF"/>
<path d="M707.485 903.877L707.497 904.23L655.219 906.035L655.207 905.682L707.485 903.877Z" fill="#66192D"/>
<path d="M640.418 914.149C640.646 914.149 640.87 914.053 641.006 913.875C641.221 913.595 641.134 913.214 640.811 913.026C640.758 912.996 635.651 909.931 634.821 901.349C633.997 892.823 640.886 889.545 640.956 889.513C641.301 889.355 641.431 888.984 641.249 888.684C641.064 888.384 640.637 888.274 640.293 888.431C639.975 888.578 632.512 892.129 633.413 901.452C634.305 910.67 639.796 913.915 640.029 914.048C640.15 914.117 640.284 914.149 640.418 914.149Z" fill="#66192D"/>
<path d="M667.595 900.114L707.757 900.728L707.751 901.082L667.589 900.467L667.595 900.114Z" fill="#66192D"/>
<path d="M618.261 891.808C618.385 891.626 618.593 891.515 618.815 891.506L619.679 891.475L630.827 891.094C631.115 891.107 631.341 891.227 631.469 891.457C631.598 891.688 631.589 891.972 631.438 892.189C631.407 892.242 628.074 897.344 629.302 902.237C630.397 906.599 632.161 909.998 632.657 910.907C632.737 911.058 632.786 911.142 632.79 911.146C632.919 911.359 632.919 911.625 632.799 911.842C632.679 912.059 632.453 912.197 632.205 912.206L619.612 912.64L619.546 912.645H619.519C619.315 912.645 619.116 912.556 618.983 912.396C618.956 912.365 618.079 911.315 617.166 909.546C615.26 905.867 613.194 899.068 618.261 891.808ZM618.819 909.688C619.169 910.278 619.488 910.734 619.714 911.04C619.763 911.107 619.808 911.164 619.847 911.217L631.022 910.836C631.008 910.809 630.995 910.783 630.982 910.756C630.21 909.232 628.854 906.262 627.932 902.583C626.908 898.514 628.597 894.467 629.603 892.548L619.781 892.889L619.218 892.907C614.378 900.114 617.011 906.647 618.819 909.688Z" fill="#66192D"/>
<path d="M715.558 915.726L656.284 915.789L589.244 919.846L589.249 924.905L654.051 919.777C660.582 919.77 665.882 925.564 665.89 932.718C665.898 939.872 660.61 945.677 654.079 945.684L589.272 945.753L589.275 949.49L715.594 949.355C724.071 949.346 730.935 941.811 730.925 932.524C730.916 923.237 724.035 915.717 715.558 915.726Z" fill="#2F4A31"/>
<path d="M671.651 932.587C671.641 923.301 664.761 915.78 656.284 915.789L589.244 919.846L589.249 924.905L654.052 919.777C660.582 919.77 665.883 925.564 665.891 932.718C665.898 939.872 660.61 945.677 654.08 945.684L589.272 945.753L589.276 949.49L656.32 949.418C664.797 949.409 671.661 941.873 671.651 932.587Z" fill="#2F4A31"/>
<path d="M654.052 919.791L589.249 924.905C595.138 925.64 597.112 931.528 598.033 934.674C599.902 941.054 595.159 944.931 589.272 945.678L589.272 945.766L654.08 945.697C660.611 945.691 665.898 939.885 665.891 932.731C665.883 925.578 660.583 919.784 654.052 919.791Z" fill="#FECAFF"/>
<path d="M665.85 947.503C665.992 947.503 666.135 947.461 666.259 947.372C666.486 947.209 671.841 943.274 672.356 932.621C672.877 921.846 665.273 918.019 664.949 917.862C664.598 917.691 664.175 917.837 664.004 918.188C663.834 918.539 663.98 918.962 664.33 919.133C664.628 919.279 671.418 922.746 670.944 932.552C670.693 937.743 669.207 941.184 668.005 943.157C666.705 945.288 665.448 946.212 665.436 946.222C665.121 946.45 665.048 946.891 665.275 947.207C665.414 947.4 665.63 947.503 665.85 947.503Z" fill="#66192D"/>
<path d="M675.595 936.624C675.608 936.58 675.621 936.535 675.635 936.491C675.972 935.401 676.264 934.301 676.49 933.233C676.8 931.779 676.747 930.184 676.326 928.486C675.949 926.957 676.295 925.366 677.27 924.12C678.25 922.866 679.73 922.143 681.326 922.139H684.189C686.064 922.139 687.775 923.127 688.653 924.719C691.561 929.989 690.847 934.94 689.663 938.273C689.366 939.115 689.038 939.851 688.728 940.463C687.855 942.205 686.095 943.286 684.141 943.286L680.519 943.291C680.515 943.291 680.515 943.291 680.51 943.291C678.853 943.291 677.337 942.524 676.353 941.185C675.378 939.855 675.098 938.193 675.595 936.624ZM677.492 940.347C677.846 940.835 678.303 941.216 678.817 941.478C679.331 941.739 679.912 941.877 680.515 941.877L684.136 941.872C685.559 941.872 686.836 941.088 687.465 939.829C687.718 939.332 687.979 938.743 688.232 938.082C689.375 935.024 690.151 930.357 687.416 925.401C686.787 924.262 685.55 923.553 684.189 923.553H681.326C680.169 923.557 679.096 924.08 678.383 924.993C677.678 925.893 677.43 927.046 677.7 928.149C678.17 930.055 678.228 931.864 677.873 933.526C677.651 934.559 677.381 935.609 677.058 936.66C677.022 936.788 676.982 936.921 676.942 937.05C676.588 938.184 676.787 939.386 677.492 940.347Z" fill="#66192D"/>
<path d="M35.6722 824.478C38.0569 820.813 43.0301 818.561 43.4157 814.204C43.5575 812.591 43.0212 810.813 43.8634 809.421C44.7853 807.901 46.8952 807.657 48.6682 807.839C50.6185 808.034 52.684 808.628 53.8852 810.175C55.3967 812.13 55.0642 814.878 55.5385 817.302C56.691 823.144 62.4442 826.735 67.6923 829.54C70.4182 830.994 73.2772 832.541 74.935 835.152C77.7407 839.567 76.1937 845.307 76.4286 850.532C76.6148 854.677 78.0199 858.755 80.4267 862.137C81.8407 864.122 83.3123 866.077 84.908 867.925C87.727 871.192 86.5347 875.554 82.4302 876.174C80.1386 876.524 77.8958 875.642 76.9649 874.131C74.0573 869.428 65.5425 869.02 62.3689 868.564C59.1997 868.107 55.8754 866.538 54.6786 863.564C53.5484 860.763 54.5988 857.567 54.1422 854.584C53.5084 850.444 50.1398 847.346 46.9794 844.602L38.8414 837.541C37.587 836.45 36.3105 835.338 35.4328 833.92C33.6865 831.096 33.8593 827.262 35.6722 824.478ZM43.7304 834.217C46.6115 837.421 51.1769 837.718 54.9445 839.252C57.8788 840.449 60.4098 841.894 63.7075 841.734C65.8439 841.636 68.4636 840.989 68.5301 838.436C68.6409 834.03 62.6482 833.259 59.5366 833.073C57.604 832.953 55.6139 832.807 53.8763 831.947C52.5954 831.313 51.505 830.298 50.7781 829.062C50.2816 828.219 49.9403 827.258 49.2489 826.566C48.7923 826.105 48.2028 825.79 47.5734 825.618C45.7428 825.117 43.6285 825.968 42.6578 827.599C41.43 829.656 42.1258 832.439 43.7304 834.217Z" fill="#C8C1E1"/>
<path d="M114.32 884.546C114.32 884.546 105.465 946.742 98.9915 947.315C92.5197 947.889 68.2657 949.188 60.8706 947.315C53.4759 945.442 49.3959 883.652 51.4361 882.162C53.4759 880.674 117.026 877.454 114.32 884.546Z" fill="#2F4A31"/>
<path d="M53.3603 922.168L56.2423 916.51C48.2895 912.454 36.6171 904.552 35.5675 899.683C35.4225 899.013 35.5268 898.552 35.9377 898.039C41.1441 891.532 53.0186 898.688 53.1378 898.762L56.4688 893.355C56.3052 893.255 52.4175 890.876 47.5378 889.668C38.5457 887.442 33.5694 890.835 30.9791 894.074C29.3732 896.081 28.8138 898.485 29.3612 901.024C31.4196 910.563 49.7142 920.31 53.3603 922.168Z" fill="#2F4A31"/>
<path d="M93.685 914.856C95.8019 903.333 85.1223 898.748 76.9405 898.748C68.7582 898.748 62.6431 904.675 62.6431 912.858C62.6431 921.04 70.6876 929.672 78.8695 929.672C87.0523 929.672 92.2072 922.904 93.685 914.856Z" fill="#FFBA41"/>
<path d="M64.4361 906.931C64.6311 906.08 64.897 905.26 65.225 904.489C65.225 904.484 65.2294 904.484 65.2294 904.48C67.419 899.374 72.4145 896.058 78.682 896.058C83.3937 896.058 89.7188 897.61 93.3446 901.958C94.1202 902.889 94.7319 903.899 95.1751 904.981C95.7602 906.408 96.0527 907.964 96.0527 909.639C96.0527 910.583 95.9597 911.563 95.7735 912.582C94.8605 917.542 92.6973 921.558 89.7187 924.191L89.7143 924.195C88.5885 925.197 87.3474 925.999 86.0088 926.576C84.3422 927.303 82.5294 927.688 80.6101 927.688C79.3912 927.688 78.1677 927.498 76.971 927.143C70.1007 925.117 64.0327 917.759 64.0327 910.521C64.0327 909.267 64.1701 908.066 64.4361 906.931ZM79.8565 926.961C80.1047 926.975 80.3575 926.983 80.6101 926.983C81.3769 926.983 82.1658 926.913 82.9592 926.766C86.0708 926.199 89.2578 924.444 91.6646 921.062V921.057C93.2027 918.899 94.4127 916.071 95.0776 912.454C95.5873 909.675 95.3702 907.188 94.4216 905.025C94.0183 904.09 93.4776 903.221 92.8038 902.41C89.3332 898.248 83.2341 896.763 78.682 896.763C73.8905 896.763 69.8747 898.797 67.4014 902.117C67.4014 902.122 67.3969 902.126 67.3969 902.126C66.3686 903.509 65.6107 905.114 65.1763 906.882C64.8882 908.03 64.7375 909.249 64.7375 910.521C64.7375 918.411 72.2416 926.452 79.8565 926.961Z" fill="white"/>
<path d="M682.238 840.147C682.238 840.147 678.511 826.758 663.668 826.502C663.668 826.502 664.883 844.601 682.238 840.147Z" fill="#FFBA41"/>
<path d="M675.537 849.043C675.968 849.292 676.527 849.259 676.931 848.92C677.225 848.671 684.171 842.741 685.619 833.831C685.727 833.166 685.278 832.54 684.611 832.433C683.947 832.324 683.321 832.776 683.213 833.44C681.91 841.467 675.427 846.998 675.361 847.054C674.847 847.487 674.78 848.256 675.213 848.771C675.307 848.884 675.418 848.975 675.537 849.043Z" fill="#66192D"/>
<path d="M657.81 839.936C655.297 841.296 653.152 843.554 651.747 845.844C646.673 854.11 646.237 866.246 650.874 874.774C655.805 883.844 668.226 887.989 677.867 885.344C686.981 882.845 694.221 874.556 695.472 865.188C696.537 857.216 692.766 849.826 684.524 848.082C681.648 847.473 678.37 847.996 675.787 846.292C671.779 843.648 668.193 838.931 663.037 838.653C661.206 838.554 659.431 839.059 657.81 839.936Z" fill="#2F4A31"/>
<path d="M213.407 779.151C213.407 779.151 213.981 781.278 214.735 781.205C215.952 781.087 216.08 779.162 216.08 779.162L213.407 779.151Z" fill="#66192D"/>
<path d="M205.579 684.235C205.61 684.235 205.64 684.235 205.672 684.232C206.517 684.182 207.161 683.456 207.11 682.611L204.587 640.41C204.656 640.28 205.041 639.938 205.856 639.777L213.809 638.7C214.648 638.587 215.236 637.815 215.123 636.976C215.009 636.137 214.239 635.548 213.399 635.663L205.401 636.744C205.375 636.748 205.349 636.752 205.322 636.757C202.943 637.208 201.418 638.735 201.526 640.558L204.051 682.793C204.099 683.609 204.774 684.235 205.579 684.235Z" fill="#2F4A31"/>
<path d="M225.227 767.063L224.303 632.793C224.287 631.513 222.592 630.475 220.503 630.466L215.357 630.445C213.283 630.436 211.585 631.446 211.537 632.716L206.827 766.745L225.227 767.063Z" fill="#66192D"/>
<path d="M214.938 630.443L215.867 622.065C215.945 621.369 216.892 620.831 218.032 620.835L218.989 620.839C220.184 620.844 221.151 621.442 221.147 622.174L221.113 630.468L214.938 630.443Z" fill="#2F4A31"/>
<path d="M210.827 651.84C210.827 651.84 216.469 650.509 224.541 651.898L224.647 660.451C224.647 660.451 217.129 658.205 210.51 660.392L210.827 651.84Z" fill="#2F4A31"/>
<path d="M173.121 724.742C173.121 724.742 167.398 742.885 181.341 746.684C202.113 752.344 228.07 764.979 228.904 753.326C229.196 749.228 203.186 735.219 203.186 735.219C203.186 735.219 239.113 753.139 240.807 742.885C242.227 734.29 208.525 719.345 208.525 719.345C208.525 719.345 236.199 729.408 238.459 719.588C240.851 709.192 209.359 700.929 209.359 700.929C209.359 700.929 237.262 710.419 237.037 698.735C236.804 686.651 214.137 686.961 204.654 684.017C195.693 681.234 190.607 686.4 187.956 695.672C187.956 695.672 180.18 703.725 179.913 710.117C179.811 712.568 176.992 714.159 176.212 715.745C174.721 718.782 173.121 724.742 173.121 724.742Z" fill="#FDAD9B"/>
<path d="M380.009 757.533L363.781 925.538C363.146 932.113 357.91 937.301 351.328 937.875L226.231 948.782C224.959 948.893 223.678 948.825 222.424 948.582L197.597 943.755C194.973 943.244 192.556 941.978 190.643 940.112L132.69 883.59C129.747 880.719 128.248 876.679 128.606 872.583L140.06 741.677C140.989 731.062 153.144 725.519 161.767 731.779L211.993 768.239C213.364 769.235 214.909 769.967 216.547 770.4L241.637 777.022C244.073 777.665 246.639 777.624 249.053 776.904L362.448 743.081C371.773 740.299 380.944 747.847 380.009 757.533Z" fill="#2F4A31"/>
<path d="M245.362 778.005L214.068 769.745L193.576 942.972C193.576 942.972 201.26 954.926 224.314 948.949L245.362 778.005Z" fill="#FFBA41"/>
<path d="M354.132 745.561C354.132 745.561 344.419 738.795 322.005 743.277C299.59 747.76 266.29 757.687 252.842 759.287C239.393 760.888 234.27 766.972 234.27 766.972C234.27 766.972 238.255 756.632 222.335 751.075C206.414 745.519 177.272 728.912 167.484 735.928L214.069 769.745L245.363 778.005L354.132 745.561Z" fill="#DCD7F4"/>
<path d="M235.532 767.192C235.545 767.13 236.999 760.949 254.572 757.371C258.866 756.496 264.717 754.916 271.492 753.087C294.321 746.922 328.823 737.606 345.337 744.668L346.344 742.313C329.013 734.902 293.996 744.357 270.824 750.614C264.091 752.432 258.275 754.002 254.06 754.86C234.719 758.798 233.122 765.979 233.004 766.786L235.538 767.159L234.271 766.972L235.532 767.192Z" fill="#DCD7F4"/>
<path d="M382.386 941.941L381.498 887.66C381.377 880.243 387.084 874.024 394.483 873.494C432.112 870.802 458.452 859.132 472.883 838.724C492.92 810.388 490.805 766.375 485.223 735.851C482.366 720.231 487.521 709.785 506.389 699.773C506.389 699.773 522.623 690.842 542.637 687.434C550.655 686.069 558.615 689.291 560.683 697.156C563.92 709.468 568.111 728.619 570.111 751.156C574.859 804.681 564.535 851.242 540.254 885.803C510.453 928.221 462.414 951.691 397.325 955.678C389.334 956.168 382.517 949.946 382.386 941.941Z" fill="#FDAD9B"/>
<g opacity="0.5">
<path d="M515.243 845.586C518.417 841.65 522.468 838.778 526.652 837.505C531.089 836.158 535.162 836.734 538.137 839.128C541.106 841.517 542.538 845.382 542.166 850C541.993 852.181 541.417 854.415 540.495 856.592C539.568 858.772 538.287 860.9 536.705 862.868C532.188 868.475 526.058 871.622 520.726 871.622C518.142 871.618 515.748 870.882 513.816 869.326C507.898 864.561 508.541 853.91 515.243 845.586ZM516.099 866.489C517.366 867.509 518.971 867.992 520.744 867.992C524.955 867.992 530.105 865.266 533.873 860.585C536.59 857.212 538.243 853.347 538.54 849.708C538.81 846.326 537.857 843.573 535.854 841.96C534.6 840.949 532.995 840.44 531.173 840.44C530.087 840.44 528.926 840.621 527.712 840.989C524.219 842.053 520.797 844.495 518.08 847.869C512.725 854.517 511.821 863.045 516.099 866.489Z" fill="#E08B65"/>
</g>
<path d="M408.299 870.052C408.299 870.052 395.085 830.057 372.457 820.264C349.829 810.471 313.522 815.07 326.259 824.118C338.996 833.167 358.466 840.233 358.466 840.233C358.466 840.233 316.16 827.093 317.373 838.318C318.584 849.542 355.487 860.616 355.487 860.616C355.487 860.616 303.901 848.991 308.479 859.223C313.057 869.456 352.308 878.01 352.308 878.01C352.308 878.01 303.88 869.112 309.476 880.873C315.072 892.635 349.544 887.968 350.756 899.191C351.967 910.417 360.576 954.591 392.188 955.033L408.299 870.052Z" fill="#FDAD9B"/>
<path d="M373.547 849.528L375.191 848.747C371.71 841.423 359.137 839.415 358.604 839.333L358.328 841.132C358.449 841.152 370.481 843.076 373.547 849.528Z" fill="#5A473E"/>
<path d="M373.748 871.794L375.205 870.704C368.339 861.52 356.124 859.784 355.607 859.714L355.364 861.518C355.483 861.534 367.347 863.233 373.748 871.794Z" fill="#5A473E"/>
<path d="M369.29 888.316L370.994 887.676C367.944 879.554 353.075 877.207 352.443 877.111L352.17 878.909C352.314 878.932 366.614 881.191 369.29 888.316Z" fill="#5A473E"/>
<path d="M126.298 1123H127.229C127.229 1121.28 127.264 1119.48 127.344 1117.63C127.734 1108.51 129.272 1096.61 133.709 1084.4C136.067 1077.9 139.25 1071.3 143.514 1064.98C162.307 1037.14 202.102 1024.04 211.508 1021.27C212.753 1020.9 213.467 1020.71 213.524 1020.7L213.409 1020.25L213.294 1019.8C213.17 1019.83 200.914 1023 186.181 1030.05C161.514 1041.85 148.944 1055.28 142.743 1064.46C137.893 1071.65 134.436 1079.18 131.981 1086.53C128.155 1098 126.781 1109.02 126.413 1117.61C126.334 1119.48 126.298 1121.27 126.298 1123Z" fill="white"/>
</svg>
