<svg width="1395" height="692" viewBox="0 0 1395 692" fill="none" xmlns="http://www.w3.org/2000/svg">
<path d="M79.974 686.557C72.4829 686.078 65.9082 684.152 60.2499 680.781C54.5961 677.339 50.3445 672.697 47.4949 666.855C44.5739 661.009 43.3579 654.269 43.8466 646.635C44.2669 640.072 45.89 634.301 48.7159 629.325C51.475 624.272 55.2047 620.284 59.9049 617.361C64.6097 614.367 69.9927 612.527 76.0541 611.841L74.4508 636.882C71.8807 637.864 69.8493 639.381 68.3567 641.435C66.7974 643.413 65.9309 645.757 65.7574 648.468C65.5016 652.463 66.7965 655.734 69.6422 658.28C72.4924 660.755 76.4503 662.155 81.5157 662.479C86.5811 662.803 90.6851 661.92 93.8277 659.829C96.9748 657.666 98.6763 654.587 98.9321 650.592C99.1057 647.881 98.581 645.448 97.3579 643.292C96.0681 641.06 94.2112 639.294 91.7873 637.992L93.3906 612.951C99.3149 614.405 104.419 616.916 108.704 620.486C112.993 623.984 116.219 628.417 118.383 633.785C120.48 639.077 121.318 645.005 120.898 651.569C120.409 659.202 118.379 665.735 114.808 671.165C111.165 676.591 106.32 680.651 100.274 683.344C94.2316 685.966 87.4651 687.037 79.974 686.557Z" fill="white"/>
<path d="M121.504 563.947L116.536 588.762L127.05 594.695L122.144 619.194L53.1525 577.055L58.542 550.138L138.418 537.915L133.492 562.519L121.504 563.947ZM102.808 566.109L80.7461 568.691L100.113 579.568L102.808 566.109Z" fill="white"/>
<path d="M151.906 500.889L121.498 505.435L121.463 505.536L147.196 514.465L139.392 536.955L67.6651 512.068L79.2654 478.636C81.2808 472.827 84.0501 468.226 87.5734 464.833C91.0291 461.416 94.8982 459.316 99.1809 458.531C103.419 457.656 107.767 457.992 112.225 459.539C117.02 461.203 120.807 464.03 123.584 468.02C126.385 471.943 127.728 476.685 127.615 482.245L160.483 476.17L151.906 500.889ZM106.47 500.334L109.563 491.418C110.313 489.257 110.403 487.472 109.832 486.063C109.194 484.631 107.828 483.552 105.734 482.825C103.843 482.169 102.158 482.228 100.679 483.001C99.2234 483.707 98.1323 485.106 97.4058 487.2L94.3124 496.115L106.47 500.334Z" fill="white"/>
<path d="M124.325 419.74L132.686 423.88L143.154 402.738L159.203 410.685L148.734 431.826L158.344 436.585L170.24 412.56L187.25 420.982L164.79 466.341L96.7522 432.652L119.212 387.293L136.221 395.715L124.325 419.74Z" fill="white"/>
<path d="M179.095 295.214L194.444 306.196L177.097 330.441L185.644 336.556L198.123 319.113L212.688 329.534L200.208 346.976L223.494 363.636L209.642 382.997L147.896 338.82L179.095 295.214Z" fill="white"/>
<path d="M271.293 305.975C266.425 311.21 260.715 314.882 254.165 316.991C247.664 319.047 241.048 319.338 234.317 317.862C227.587 316.386 221.499 313.116 216.055 308.052C210.611 302.989 206.909 297.154 204.95 290.548C202.991 283.942 202.828 277.347 204.461 270.762C206.09 264.077 209.339 258.116 214.208 252.882C219.076 247.647 224.761 244.001 231.263 241.944C237.712 239.839 244.277 239.551 250.959 241.079C257.69 242.555 263.777 245.825 269.221 250.888C274.666 255.952 278.367 261.787 280.327 268.393C282.334 274.946 282.524 281.566 280.894 288.252C279.314 294.885 276.113 300.793 271.293 305.975ZM255.039 290.858C258.253 287.403 259.636 283.71 259.19 279.781C258.692 275.803 256.559 272.061 252.789 268.556C248.968 265.002 245.082 263.144 241.13 262.984C237.127 262.775 233.518 264.398 230.305 267.853C227.043 271.36 225.661 275.103 226.159 279.081C226.605 283.01 228.739 286.752 232.56 290.306C236.329 293.812 240.215 295.669 244.219 295.878C248.17 296.038 251.777 294.365 255.039 290.858Z" fill="white"/>
<path d="M334.247 246.431L305.993 234.305L305.91 234.373L323.101 255.5L304.636 270.525L256.718 211.636L284.166 189.301C288.935 185.42 293.71 182.964 298.491 181.93C303.227 180.841 307.623 181.09 311.678 182.675C315.743 184.16 319.265 186.732 322.243 190.392C325.446 194.329 327.18 198.725 327.444 203.579C327.763 208.389 326.412 213.128 323.391 217.798L354.542 229.916L334.247 246.431ZM295.893 222.063L303.213 216.107C304.987 214.663 306.002 213.192 306.258 211.694C306.468 210.14 305.874 208.503 304.475 206.784C303.212 205.232 301.748 204.395 300.083 204.275C298.474 204.11 296.81 204.727 295.091 206.125L287.772 212.081L295.893 222.063Z" fill="white"/>
<path d="M412.431 106.567L414.795 165.991L426.161 186.05L405.448 197.786L394.083 177.727L344.323 145.158L368.021 131.73L391.832 149.175L389.106 119.783L412.431 106.567Z" fill="white"/>
<path d="M476.681 163.662C470.058 166.354 463.333 167.275 456.504 166.424C449.742 165.546 443.621 163.018 438.142 158.84C432.662 154.663 428.522 149.13 425.722 142.242C422.922 135.355 422.028 128.503 423.038 121.687C424.049 114.871 426.683 108.823 430.941 103.542C435.239 98.1675 440.699 94.1343 447.322 91.442C453.945 88.7498 460.637 87.8427 467.399 88.7208C474.134 89.5326 480.209 92.0408 485.622 96.2453C491.102 100.423 495.242 105.956 498.042 112.843C500.841 119.731 501.736 126.582 500.726 133.398C499.781 140.187 497.16 146.269 492.863 151.643C488.631 156.99 483.237 160.997 476.681 163.662ZM468.321 143.099C472.692 141.322 475.505 138.558 476.758 134.807C477.984 130.99 477.629 126.698 475.69 121.929C473.725 117.095 470.985 113.771 467.47 111.959C463.928 110.081 459.972 110.03 455.601 111.807C451.163 113.61 448.332 116.421 447.105 120.238C445.852 123.989 446.208 128.281 448.173 133.116C450.111 137.884 452.852 141.207 456.393 143.086C459.908 144.898 463.884 144.903 468.321 143.099Z" fill="white"/>
<path d="M526.014 66.191L536.318 107.718C537.161 111.118 538.561 113.644 540.518 115.294C542.526 116.858 545.196 117.227 548.526 116.401C551.857 115.574 554.079 113.992 555.193 111.653C556.289 109.245 556.416 106.341 555.572 102.941L545.268 61.4135L568.27 55.7063L578.574 97.2336C580.312 104.242 580.344 110.605 578.67 116.324C576.978 121.973 573.909 126.675 569.464 130.43C565.019 134.185 559.674 136.837 553.429 138.386C547.184 139.936 541.323 140.064 535.847 138.771C530.439 137.461 525.771 134.679 521.843 130.424C517.915 126.169 515.072 120.503 513.316 113.426L503.012 71.8983L526.014 66.191Z" fill="white"/>
<path d="M637.507 122.803L620.34 97.2959L620.234 97.3077L623.225 124.381L599.563 126.995L591.225 51.532L626.399 47.6459C632.51 46.9707 637.854 47.4951 642.432 49.219C647.002 50.8718 650.561 53.4635 653.109 56.994C655.72 60.4456 657.284 64.5163 657.802 69.2061C658.36 74.2511 657.433 78.8847 655.023 83.1069C652.683 87.3213 648.979 90.5716 643.909 92.8579L663.514 119.929L637.507 122.803ZM618.491 81.533L627.87 80.4967C630.144 80.2455 631.795 79.5597 632.822 78.4392C633.841 77.2478 634.229 75.5507 633.985 73.3479C633.766 71.3583 632.989 69.8617 631.655 68.8583C630.393 67.847 628.66 67.463 626.457 67.7064L617.078 68.7427L618.491 81.533Z" fill="white"/>
<path d="M799.109 50.222L792.587 125.863L768.976 123.828L772.228 86.1138L757.331 122.824L737.031 121.073L728.638 82.3555L725.386 120.069L701.668 118.024L708.19 42.383L737.25 44.8885L750.002 91.7317L770.156 47.7257L799.109 50.222Z" fill="white"/>
<path d="M839.414 78.739L837.278 87.8206L860.243 93.2221L856.143 110.655L833.178 105.253L830.723 115.692L856.819 121.83L852.474 140.306L803.203 128.717L820.587 54.8121L869.857 66.4009L865.511 84.8772L839.414 78.739Z" fill="white"/>
<path d="M936.641 169.928L914.38 161.492L904.343 116.864L890.815 152.562L868.554 144.126L895.457 73.1308L917.718 81.5665L927.528 126.796L941.283 90.4963L963.545 98.932L936.641 169.928Z" fill="white"/>
<path d="M1035.45 136.128L1026.65 152.824L1008.81 143.423L982.213 193.89L961.153 182.789L987.755 132.322L970.111 123.021L978.912 106.326L1035.45 136.128Z" fill="white"/>
<path d="M1044.84 220.407L1023.99 206.061L1014.4 213.386L993.813 199.223L1059.73 152.422L1082.35 167.983L1062.1 246.212L1041.43 231.987L1044.84 220.407ZM1050.22 202.372L1056.54 181.078L1038.91 194.591L1050.22 202.372Z" fill="white"/>
<path d="M1092.33 250.139L1109.54 265.322L1097.62 278.83L1062.56 247.897L1112.79 190.967L1130.65 206.718L1092.33 250.139Z" fill="white"/>
<path d="M1230.22 314.821L1171.14 362.503L1156.18 343.978L1179.22 325.39L1165.01 307.783L1141.97 326.371L1127.02 307.845L1186.1 260.163L1201.05 278.688L1179.78 295.862L1193.99 313.469L1215.26 296.296L1230.22 314.821Z" fill="white"/>
<path d="M1237.28 360.965L1229.33 365.849L1241.68 385.949L1226.42 395.325L1214.07 375.225L1204.93 380.839L1218.97 403.68L1202.8 413.617L1176.3 370.494L1240.98 330.745L1267.48 373.868L1251.31 383.806L1237.28 360.965Z" fill="white"/>
<path d="M1241.71 467.532L1231.32 444.453L1219.32 445.738L1209.07 422.952L1289.7 417.132L1300.96 442.167L1243.08 498.546L1232.78 475.663L1241.71 467.532ZM1255.66 454.904L1272.11 439.979L1250.03 442.387L1255.66 454.904Z" fill="white"/>
<path d="M1266.75 517.513L1273.66 539.396L1256.48 544.82L1242.41 500.236L1314.8 477.376L1321.97 500.077L1266.75 517.513Z" fill="white"/>
<path d="M1344.54 594.261L1326.05 598.039L1322.02 578.287L1266.12 589.708L1261.36 566.383L1317.25 554.963L1313.26 535.421L1331.75 531.643L1344.54 594.261Z" fill="white"/>
<path d="M1351.89 678.111L1276.18 683.792L1274.4 660.053L1303.91 657.838L1302.22 635.275L1272.7 637.49L1270.92 613.751L1346.63 608.069L1348.41 631.808L1321.15 633.855L1322.84 656.418L1350.11 654.371L1351.89 678.111Z" fill="white"/>
</svg>
