<svg width="133" height="43" viewBox="0 0 133 43" fill="none" xmlns="http://www.w3.org/2000/svg">
<path d="M68.5503 13.9078C68.4752 19.8299 73.8281 23.1345 77.8603 25.0995C82.0031 27.1153 83.3947 28.4082 83.3782 30.2111C83.3474 32.9701 80.0736 34.1879 77.0102 34.2352C71.6656 34.318 68.558 32.7922 66.0875 31.6382L64.1622 40.6474C66.6409 41.7895 71.2306 42.7856 75.99 42.8293C87.1621 42.8293 94.4712 37.3145 94.5108 28.764C94.5545 17.9123 79.5008 17.3116 79.6036 12.4612C79.6391 10.9905 81.0425 9.42096 84.1177 9.0219C85.6399 8.82031 89.8419 8.66603 94.6059 10.8598L96.4757 2.14326C93.9137 1.21041 90.621 0.31715 86.5213 0.31715C76.0059 0.31715 68.6099 5.90707 68.5503 13.9078ZM114.443 1.06796C112.403 1.06796 110.683 2.25794 109.916 4.08405L93.9574 42.1891H105.121L107.343 36.0494H120.985L122.274 42.1891H132.113L123.527 1.06796H114.443ZM116.004 12.1763L119.226 27.6178H110.403L116.004 12.1763ZM55.0147 1.06847L46.2148 42.1886H56.8531L65.6489 1.06744L55.0147 1.06847ZM39.277 1.06847L28.2041 29.0566L23.725 5.2586C23.1994 2.60197 21.1239 1.06796 18.819 1.06796H0.71837L0.464844 2.26205C4.18083 3.0684 8.40284 4.36894 10.9607 5.76051C12.5261 6.61057 12.9725 7.35366 13.4867 9.37365L21.9704 42.1891H33.2124L50.4481 1.06796L39.277 1.06847Z" fill="white"/>
</svg>
